<svg width="340" height="456" viewBox="0 0 340 456" fill="none" xmlns="http://www.w3.org/2000/svg">
<g clip-path="url(#clip0_324_890)">
<path d="M0 456V0H171.932C209.28 0 241.263 13.2733 267.879 39.8197C294.495 65.9381 307.803 97.8366 307.803 135.516C307.803 165.916 296.856 192.034 274.962 213.87C294.71 224.146 310.379 238.704 321.97 257.544C333.99 276.383 340 297.792 340 321.769C340 359.448 326.692 391.346 300.076 417.465C273.46 443.155 240.404 456 200.909 456H0Z" fill="#F3F3E2"/>
<path d="M170.965 383.462C173.528 386.108 176.616 387.432 180.229 387.432C183.842 387.432 186.909 386.108 189.43 383.462C191.95 380.815 193.211 377.664 193.211 374.009C193.211 370.354 191.95 367.203 189.43 364.556C186.909 361.909 183.842 360.586 180.229 360.586C176.616 360.586 173.528 361.909 170.965 364.556C168.444 367.203 167.184 370.354 167.184 374.009C167.184 377.664 168.444 380.815 170.965 383.462ZM196.551 390.331C192.056 394.868 186.615 397.137 180.229 397.137C173.843 397.137 168.381 394.889 163.844 390.394C159.349 385.856 157.101 380.395 157.101 374.009C157.101 367.623 159.349 362.182 163.844 357.687C168.381 353.15 173.843 350.881 180.229 350.881C186.615 350.881 192.056 353.15 196.551 357.687C201.088 362.224 203.357 367.665 203.357 374.009C203.357 380.353 201.088 385.793 196.551 390.331Z" fill="black"/>
<path d="M146.161 396.381V351.637H156.181V396.381H146.161Z" fill="black"/>
<path d="M107.1 396.381V351.637H122.35C128.652 351.637 134.03 353.822 138.483 358.191C142.936 362.56 145.163 367.833 145.163 374.009C145.163 380.185 142.936 385.457 138.483 389.827C134.03 394.196 128.652 396.381 122.35 396.381H107.1ZM117.12 387.18H122.35C126.047 387.18 129.072 385.919 131.425 383.399C133.82 380.836 135.017 377.706 135.017 374.009C135.017 370.312 133.82 367.203 131.425 364.682C129.072 362.119 126.047 360.838 122.35 360.838H117.12V387.18Z" fill="black"/>
<path d="M100.56 392.095C97.1567 395.456 92.7454 397.137 87.3258 397.137C81.9062 397.137 77.4739 395.456 74.0288 392.095C70.6258 388.692 68.9243 384.218 68.9243 378.672V351.637H78.9443V378.798C78.9443 381.445 79.7005 383.546 81.213 385.1C82.7675 386.655 84.8051 387.432 87.3258 387.432C89.8466 387.432 91.8632 386.655 93.3756 385.1C94.9301 383.546 95.7073 381.445 95.7073 378.798V351.637H105.727V378.672C105.727 384.218 104.005 388.692 100.56 392.095Z" fill="black"/>
<path d="M46.089 396.381V361.216H34.6826V351.637H67.7045V361.216H56.172V396.381H46.089Z" fill="black"/>
<path d="M19.4988 397.137C14.2892 397.137 10.088 395.624 6.89502 392.599C3.70207 389.574 2.02157 386.045 1.85352 382.012H11.8735C12.2096 383.861 13.0499 385.31 14.3943 386.36C15.7807 387.369 17.4822 387.873 19.4988 387.873C21.2213 387.873 22.6077 387.516 23.658 386.802C24.7504 386.087 25.2965 385.121 25.2965 383.903C25.2965 381.76 23.3429 380.143 19.4358 379.05L15.0875 377.916C11.3484 376.908 8.40747 375.269 6.26483 373C4.12219 370.732 3.02987 367.896 2.98786 364.493C2.98786 360.334 4.37427 357.036 7.1471 354.599C9.96194 352.12 13.7011 350.881 18.3645 350.881C23.0699 350.881 26.893 352.309 29.8339 355.166C32.7748 357.981 34.3292 361.216 34.4973 364.871H24.5403C24.0782 363.233 23.2799 362.035 22.1456 361.279C21.0112 360.523 19.7509 360.145 18.3645 360.145C16.81 360.145 15.5496 360.46 14.5833 361.09C13.617 361.72 13.1129 362.623 13.0709 363.8C13.0289 364.976 13.449 365.942 14.3312 366.699C15.2555 367.455 16.6419 368.085 18.4905 368.589L23.595 369.913C27.3341 370.921 30.233 372.58 32.2916 374.891C34.3922 377.202 35.4426 380.101 35.4426 383.588C35.4426 387.453 33.9721 390.688 31.0312 393.293C28.0904 395.855 24.2462 397.137 19.4988 397.137Z" fill="black"/>
<path d="M217.477 444.506C212.267 444.506 208.066 442.993 204.873 439.968C201.68 436.944 200 433.415 199.832 429.381H209.852C210.188 431.23 211.028 432.679 212.372 433.73C213.759 434.738 215.46 435.242 217.477 435.242C219.199 435.242 220.586 434.885 221.636 434.171C222.728 433.457 223.275 432.49 223.275 431.272C223.275 429.129 221.321 427.512 217.414 426.419L213.065 425.285C209.326 424.277 206.386 422.638 204.243 420.37C202.1 418.101 201.008 415.265 200.966 411.862C200.966 407.703 202.352 404.405 205.125 401.968C207.94 399.489 211.679 398.25 216.342 398.25C221.048 398.25 224.871 399.678 227.812 402.535C230.753 405.35 232.307 408.585 232.475 412.24H222.518C222.056 410.602 221.258 409.404 220.124 408.648C218.989 407.892 217.729 407.514 216.342 407.514C214.788 407.514 213.528 407.829 212.561 408.459C211.595 409.089 211.091 409.993 211.049 411.169C211.007 412.345 211.427 413.312 212.309 414.068C213.234 414.824 214.62 415.454 216.469 415.958L221.573 417.282C225.312 418.29 228.211 419.949 230.27 422.26C232.37 424.571 233.421 427.47 233.421 430.957C233.421 434.822 231.95 438.057 229.009 440.662C226.068 443.224 222.224 444.506 217.477 444.506Z" fill="black"/>
<path d="M153.148 399.006H162.286L176.213 418.29L190.266 399.006H199.404V443.75H189.321V416.21L176.276 434.234L163.168 416.147V443.75H153.148V399.006Z" fill="black"/>
<path d="M111.939 443.75V399.006H121.959V416.526H139.983V399.006H150.003V443.75H139.983V426.041H121.959V443.75H111.939Z" fill="black"/>
<path d="M66.188 443.75L99.1468 399.006H108.222V443.75H99.1468V434.297H85.8129L79.3065 443.75H66.188ZM99.1468 414.55L91.2783 425.6H99.1468V414.55Z" fill="black"/>
<path d="M35.5537 443.75V399.006H53.199C57.3162 399.006 60.6562 400.309 63.219 402.914C65.7817 405.518 67.0631 408.711 67.0631 412.492C67.0631 418.122 64.1433 421.966 58.3035 424.025L74.1212 443.75H62.0846L47.1492 425.285H45.5737V443.75H35.5537ZM45.5737 416.778H52.0016C53.5141 416.778 54.7324 416.379 55.6567 415.58C56.623 414.782 57.1062 413.753 57.1062 412.492C57.1062 411.148 56.623 410.098 55.6567 409.341C54.7324 408.585 53.5141 408.207 52.0016 408.207H45.5737V416.778Z" fill="black"/>
<path d="M1.85352 443.75V399.006H18.6795C22.3346 399.006 25.4646 400.309 28.0693 402.914C30.6741 405.476 31.9765 408.606 31.9765 412.303C31.9765 415.286 30.9052 417.849 28.7626 419.992C30.6951 421 32.2286 422.428 33.3629 424.277C34.5393 426.125 35.1275 428.226 35.1275 430.579C35.1275 434.276 33.8251 437.406 31.2203 439.969C28.6155 442.489 25.3805 443.75 21.5154 443.75H1.85352ZM11.8735 434.549H20.6961C22.0405 434.549 23.1539 434.129 24.0361 433.289C24.9184 432.406 25.3595 431.335 25.3595 430.075C25.3595 428.814 24.8974 427.764 23.9731 426.924C23.0909 426.041 21.9775 425.6 20.6331 425.6H11.8735V434.549ZM11.8735 417.093H17.5452C18.8896 417.093 20.0029 416.673 20.8852 415.832C21.7675 414.992 22.2086 413.942 22.2086 412.681C22.2086 411.421 21.7675 410.35 20.8852 409.467C20.0029 408.585 18.8896 408.144 17.5452 408.144H11.8735V417.093Z" fill="black"/>
</g>
<defs>
<clipPath id="clip0_324_890">
<rect width="340" height="456" fill="white"/>
</clipPath>
</defs>
</svg>
