<svg width="276" height="369" viewBox="0 0 276 369" fill="none" xmlns="http://www.w3.org/2000/svg">
<g clip-path="url(#clip0_340_1447)">
<path d="M0 369V0H139.129C169.352 0 195.232 10.7409 216.77 32.2226C238.308 53.3578 249.077 79.1704 249.077 109.661C249.077 134.261 240.219 155.396 222.502 173.066C238.482 181.382 251.162 193.162 260.541 208.407C270.268 223.652 275.132 240.976 275.132 260.379C275.132 290.869 264.363 316.682 242.824 337.817C221.286 358.606 194.538 369 162.578 369H0Z" fill="#F3F3E2"/>
<path d="M145.347 310.301C147.421 312.443 149.92 313.514 152.843 313.514C155.767 313.514 158.249 312.443 160.289 310.301C162.328 308.159 163.348 305.61 163.348 302.652C163.348 299.694 162.328 297.144 160.289 295.003C158.249 292.861 155.767 291.79 152.843 291.79C149.92 291.79 147.421 292.861 145.347 295.003C143.307 297.144 142.287 299.694 142.287 302.652C142.287 305.61 143.307 308.159 145.347 310.301ZM166.051 315.86C162.413 319.531 158.011 321.367 152.843 321.367C147.676 321.367 143.256 319.548 139.584 315.911C135.947 312.239 134.128 307.819 134.128 302.652C134.128 297.484 135.947 293.082 139.584 289.444C143.256 285.772 147.676 283.937 152.843 283.937C158.011 283.937 162.413 285.772 166.051 289.444C169.723 293.116 171.559 297.518 171.559 302.652C171.559 307.785 169.723 312.188 166.051 315.86Z" fill="black"/>
<path d="M125.275 320.755V284.549H133.384V320.755H125.275Z" fill="black"/>
<path d="M93.666 320.755V284.549H106.007C111.106 284.549 115.458 286.316 119.062 289.852C122.665 293.388 124.467 297.654 124.467 302.652C124.467 307.65 122.665 311.916 119.062 315.452C115.458 318.988 111.106 320.755 106.007 320.755H93.666ZM101.774 313.31H106.007C108.999 313.31 111.446 312.29 113.35 310.25C115.288 308.176 116.257 305.644 116.257 302.652C116.257 299.66 115.288 297.144 113.35 295.105C111.446 293.031 108.999 291.994 106.007 291.994H101.774V313.31Z" fill="black"/>
<path d="M88.3732 317.288C85.6194 320.007 82.0497 321.367 77.6641 321.367C73.2785 321.367 69.6918 320.007 66.9041 317.288C64.1503 314.534 62.7734 310.913 62.7734 306.426V284.549H70.8817V306.528C70.8817 308.669 71.4937 310.369 72.7176 311.627C73.9754 312.885 75.6243 313.514 77.6641 313.514C79.7039 313.514 81.3358 312.885 82.5597 311.627C83.8176 310.369 84.4465 308.669 84.4465 306.528V284.549H92.5548V306.426C92.5548 310.913 91.1609 314.534 88.3732 317.288Z" fill="black"/>
<path d="M44.2956 320.755V292.3H35.0654V284.549H61.7871V292.3H52.4549V320.755H44.2956Z" fill="black"/>
<path d="M22.7787 321.367C18.5631 321.367 15.1634 320.143 12.5796 317.696C9.99587 315.248 8.63599 312.392 8.5 309.128H16.6083C16.8803 310.624 17.5602 311.797 18.6481 312.647C19.77 313.463 21.1469 313.871 22.7787 313.871C24.1726 313.871 25.2945 313.582 26.1444 313.004C27.0284 312.426 27.4703 311.644 27.4703 310.658C27.4703 308.924 25.8895 307.615 22.7277 306.732L19.2091 305.814C16.1833 304.998 13.8035 303.672 12.0697 301.836C10.3358 300 9.45192 297.705 9.41792 294.952C9.41792 291.586 10.5398 288.917 12.7836 286.945C15.0614 284.939 18.0872 283.937 21.8608 283.937C25.6685 283.937 28.7622 285.092 31.142 287.404C33.5218 289.682 34.7797 292.3 34.9157 295.258H26.8584C26.4844 293.932 25.8385 292.963 24.9206 292.351C24.0026 291.739 22.9827 291.433 21.8608 291.433C20.6029 291.433 19.583 291.688 18.8011 292.198C18.0192 292.708 17.6112 293.439 17.5772 294.391C17.5432 295.343 17.8832 296.124 18.5971 296.736C19.345 297.348 20.4669 297.858 21.9628 298.266L26.0934 299.337C29.1192 300.153 31.465 301.496 33.1308 303.366C34.8307 305.236 35.6806 307.581 35.6806 310.403C35.6806 313.531 34.4907 316.149 32.1109 318.256C29.7311 320.33 26.6204 321.367 22.7787 321.367Z" fill="black"/>
<path d="M182.984 359.699C178.768 359.699 175.368 358.475 172.785 356.027C170.201 353.579 168.841 350.724 168.705 347.46H176.813C177.085 348.956 177.765 350.129 178.853 350.979C179.975 351.794 181.352 352.202 182.984 352.202C184.378 352.202 185.5 351.913 186.35 351.335C187.233 350.758 187.675 349.976 187.675 348.99C187.675 347.256 186.095 345.947 182.933 345.063L179.414 344.145C176.388 343.329 174.009 342.003 172.275 340.167C170.541 338.332 169.657 336.037 169.623 333.283C169.623 329.917 170.745 327.249 172.989 325.277C175.266 323.271 178.292 322.268 182.066 322.268C185.874 322.268 188.967 323.424 191.347 325.736C193.727 328.014 194.985 330.631 195.121 333.589H187.063C186.689 332.263 186.044 331.294 185.126 330.682C184.208 330.07 183.188 329.764 182.066 329.764C180.808 329.764 179.788 330.019 179.006 330.529C178.224 331.039 177.816 331.77 177.782 332.722C177.748 333.674 178.088 334.456 178.802 335.068C179.55 335.68 180.672 336.19 182.168 336.598L186.299 337.669C189.324 338.485 191.67 339.828 193.336 341.697C195.036 343.567 195.886 345.913 195.886 348.735C195.886 351.862 194.696 354.48 192.316 356.588C189.936 358.662 186.825 359.699 182.984 359.699Z" fill="black"/>
<path d="M130.929 322.88H138.323L149.593 338.485L160.965 322.88H168.359V359.087H160.2V336.802L149.644 351.386L139.037 336.751V359.087H130.929V322.88Z" fill="black"/>
<path d="M97.583 359.087V322.88H105.691V337.057H120.276V322.88H128.384V359.087H120.276V344.757H105.691V359.087H97.583Z" fill="black"/>
<path d="M60.5596 359.087L87.2302 322.88H94.5736V359.087H87.2302V351.437H76.4403L71.1752 359.087H60.5596ZM87.2302 335.458L80.8629 344.4H87.2302V335.458Z" fill="black"/>
<path d="M35.7705 359.087V322.88H50.0492C53.381 322.88 56.0837 323.934 58.1575 326.042C60.2313 328.15 61.2683 330.733 61.2683 333.793C61.2683 338.349 58.9055 341.459 54.1799 343.125L66.9797 359.087H57.2396L45.1537 344.145H43.8788V359.087H35.7705ZM43.8788 337.261H49.0803C50.3042 337.261 51.2901 336.938 52.0381 336.292C52.82 335.646 53.211 334.813 53.211 333.793C53.211 332.705 52.82 331.855 52.0381 331.243C51.2901 330.631 50.3042 330.325 49.0803 330.325H43.8788V337.261Z" fill="black"/>
<path d="M8.5 359.087V322.88H22.1158C25.0735 322.88 27.6063 323.934 29.7141 326.042C31.8219 328.116 32.8758 330.648 32.8758 333.64C32.8758 336.054 32.0089 338.128 30.2751 339.862C31.8389 340.678 33.0798 341.833 33.9978 343.329C34.9497 344.825 35.4256 346.525 35.4256 348.429C35.4256 351.421 34.3717 353.953 32.2639 356.027C30.1561 358.067 27.5383 359.087 24.4106 359.087H8.5ZM16.6083 351.642H23.7477C24.8356 351.642 25.7365 351.302 26.4504 350.622C27.1644 349.908 27.5213 349.041 27.5213 348.021C27.5213 347.001 27.1474 346.151 26.3994 345.471C25.6855 344.757 24.7846 344.4 23.6967 344.4H16.6083V351.642ZM16.6083 337.516H21.1979C22.2858 337.516 23.1867 337.176 23.9006 336.496C24.6146 335.816 24.9715 334.966 24.9715 333.946C24.9715 332.926 24.6146 332.059 23.9006 331.345C23.1867 330.631 22.2858 330.274 21.1979 330.274H16.6083V337.516Z" fill="black"/>
</g>
<defs>
<clipPath id="clip0_340_1447">
<rect width="275.132" height="369" fill="white"/>
</clipPath>
</defs>
</svg>
