<svg width="1440" height="932" viewBox="0 0 1440 932" fill="none" xmlns="http://www.w3.org/2000/svg">
<g clip-path="url(#clip0_292_49)">
<rect width="1440" height="932" fill="black"/>
<path d="M480.663 278.645C497.604 278.645 512.009 284.651 523.935 296.688L523.938 296.691C535.979 308.733 541.985 323.141 541.985 339.967C541.985 356.793 535.979 371.2 523.938 383.241L523.935 383.245C512.009 395.282 497.604 401.289 480.663 401.289C463.719 401.289 449.254 395.336 437.215 383.408C425.291 371.37 419.341 356.908 419.341 339.967C419.341 323.023 425.293 308.616 437.218 296.691C449.258 284.651 463.722 278.645 480.663 278.645ZM480.663 302.796C470.65 302.796 462.071 306.476 454.981 313.799L454.976 313.805C448.006 321.123 444.512 329.861 444.512 339.967C444.512 350.073 448.006 358.811 454.976 366.129L454.981 366.135C462.071 373.457 470.65 377.138 480.663 377.138C490.676 377.138 499.201 373.456 506.18 366.129C513.149 358.811 516.645 350.073 516.645 339.967C516.645 329.861 513.149 321.123 506.18 313.805C499.201 306.477 490.676 302.796 480.663 302.796Z" stroke="white" stroke-opacity="0.2" stroke-width="2"/>
<path d="M414.863 280.682V399.25H389.862V280.682H414.863Z" stroke="white" stroke-opacity="0.2" stroke-width="2"/>
<path d="M324.699 280.682C341.421 280.682 355.659 286.469 367.47 298.057C379.281 309.645 385.171 323.596 385.172 339.966C385.172 356.337 379.281 370.289 367.47 381.876C355.659 393.465 341.421 399.25 324.699 399.25H284.603V280.682H324.699ZM309.604 376.458H324.699C334.597 376.457 342.811 373.177 349.264 366.598L349.882 365.952C356.518 358.85 359.832 350.167 359.832 339.966C359.832 329.765 356.518 321.136 349.877 314.145C343.336 307.027 334.915 303.475 324.699 303.475H309.604V376.458Z" stroke="white" stroke-opacity="0.2" stroke-width="2"/>
<path d="M206.735 280.682V352.873C206.735 360.204 208.836 366.136 213.131 370.551L213.141 370.561C217.545 374.965 223.304 377.137 230.32 377.137C237.335 377.137 243.045 374.965 247.339 370.551L247.338 370.55C251.745 366.138 253.906 360.207 253.906 352.873V280.682H278.906V352.533C278.906 367.251 274.343 379.037 265.278 387.992C256.32 396.838 244.699 401.289 230.32 401.289C216.39 401.289 204.992 397.112 196.045 388.804L195.187 387.988C186.239 379.035 181.734 367.25 181.734 352.533V280.682H206.735Z" stroke="white" stroke-opacity="0.2" stroke-width="2"/>
<path d="M176.446 280.682V304.494H145.37V399.25H120.199V304.494H89.4631V280.682H176.446Z" stroke="white" stroke-opacity="0.2" stroke-width="2"/>
<path d="M44.4912 278.645C56.952 278.645 66.9909 282.419 74.7012 289.909L74.7061 289.914C82.1838 297.071 86.2215 305.207 86.9004 314.344H61.877C60.5539 310.12 58.3587 306.914 55.2354 304.832C52.0115 302.683 48.421 301.607 44.4912 301.607C40.1743 301.607 36.5705 302.482 33.7568 304.317C30.874 306.197 29.3521 308.934 29.2275 312.421C29.1036 315.89 30.3606 318.788 32.9727 321.027L32.9814 321.035L32.9902 321.042C35.6355 323.206 39.5241 324.951 44.5684 326.327L44.5801 326.331L58.3262 329.894V329.895C68.261 332.574 75.8857 336.961 81.2744 343.01L81.2803 343.017C86.7535 349.037 89.5117 356.599 89.5117 365.778C89.5117 375.899 85.6779 384.344 77.9678 391.176C70.2626 397.89 60.1538 401.289 47.5479 401.289C33.7156 401.289 22.658 397.279 14.2734 389.336C6.11759 381.609 1.73439 372.685 1.05566 362.533H26.1807C27.2199 367.345 29.546 371.201 33.1777 374.038L33.2051 374.06C37.1405 376.922 41.9411 378.326 47.5479 378.326C52.3124 378.326 56.2591 377.339 59.3027 375.275L59.3037 375.276C62.5055 373.183 64.1708 370.276 64.1709 366.628C64.1709 363.387 62.6752 360.588 59.8604 358.258C57.0748 355.952 52.9747 354.078 47.6475 352.589L47.6396 352.587L47.6309 352.584L35.9219 349.529C25.9819 346.849 18.2338 342.513 12.6143 336.563C7.03169 330.653 4.16946 323.263 4.05664 314.324C4.05672 303.364 7.69782 294.766 14.9248 288.415L14.9258 288.414C22.2868 281.932 32.107 278.645 44.4912 278.645Z" stroke="white" stroke-opacity="0.2" stroke-width="2"/>
<path d="M480.663 411.326C497.604 411.326 512.009 417.333 523.935 429.37L523.938 429.373C535.979 441.415 541.985 455.822 541.985 472.648C541.985 489.474 535.979 503.881 523.938 515.923L523.935 515.927C512.009 527.964 497.604 533.971 480.663 533.971C463.719 533.971 449.254 528.018 437.215 516.09C425.291 504.052 419.341 489.59 419.341 472.648C419.341 455.704 425.293 441.298 437.218 429.373C449.258 417.333 463.722 411.326 480.663 411.326ZM480.663 435.478C470.65 435.478 462.071 439.158 454.981 446.48L454.976 446.486C448.006 453.804 444.512 462.542 444.512 472.648C444.512 482.754 448.006 491.492 454.976 498.811L454.981 498.816C462.071 506.139 470.65 509.819 480.663 509.819C490.676 509.819 499.201 506.138 506.18 498.811C513.149 491.492 516.645 482.754 516.645 472.648C516.645 462.542 513.149 453.804 506.18 446.486C499.201 439.159 490.676 435.478 480.663 435.478Z" stroke="white" stroke-opacity="0.2" stroke-width="2"/>
<path d="M414.863 413.364V531.932H389.862V413.364H414.863Z" stroke="white" stroke-opacity="0.2" stroke-width="2"/>
<path d="M324.699 413.364C341.421 413.364 355.659 419.151 367.47 430.739C379.281 442.327 385.171 456.278 385.172 472.648C385.172 489.018 379.281 502.97 367.47 514.558C355.659 526.146 341.421 531.932 324.699 531.932H284.603V413.364H324.699ZM309.604 509.139H324.699C334.597 509.139 342.811 505.859 349.264 499.28L349.882 498.633C356.518 491.532 359.832 482.849 359.832 472.648C359.832 462.447 356.518 453.818 349.877 446.827C343.336 439.709 334.915 436.157 324.699 436.157H309.604V509.139Z" stroke="white" stroke-opacity="0.2" stroke-width="2"/>
<path d="M206.735 413.364V485.554C206.735 492.886 208.836 498.818 213.131 503.233L213.141 503.243C217.545 507.647 223.304 509.819 230.32 509.819C237.335 509.819 243.045 507.647 247.339 503.233L247.338 503.232C251.745 498.819 253.906 492.888 253.906 485.554V413.364H278.906V485.214C278.906 499.933 274.343 511.719 265.278 520.673C256.32 529.52 244.699 533.97 230.32 533.97C216.39 533.97 204.992 529.794 196.045 521.486L195.187 520.669C186.239 511.717 181.734 499.932 181.734 485.214V413.364H206.735Z" stroke="white" stroke-opacity="0.2" stroke-width="2"/>
<path d="M176.446 413.364V437.175H145.37V531.932H120.199V437.175H89.4631V413.364H176.446Z" stroke="white" stroke-opacity="0.2" stroke-width="2"/>
<path d="M44.4912 411.326C56.952 411.326 66.9909 415.101 74.7012 422.591L74.7061 422.596C82.1838 429.753 86.2215 437.889 86.9004 447.025H61.877C60.5539 442.801 58.3587 439.596 55.2354 437.514C52.0115 435.364 48.421 434.289 44.4912 434.289C40.1743 434.289 36.5705 435.164 33.7568 436.999C30.874 438.879 29.3521 441.615 29.2275 445.103C29.1036 448.572 30.3606 451.47 32.9727 453.709L32.9814 453.717L32.9902 453.724C35.6355 455.888 39.5241 457.633 44.5684 459.009L44.5801 459.013L58.3262 462.575V462.576C68.261 465.255 75.8857 469.643 81.2744 475.691L81.2803 475.698C86.7535 481.719 89.5117 489.281 89.5117 498.46C89.5117 508.581 85.6779 517.026 77.9678 523.857C70.2626 530.572 60.1538 533.971 47.5479 533.971C33.7156 533.971 22.658 529.961 14.2734 522.018C6.11759 514.291 1.73439 505.366 1.05566 495.215H26.1807C27.2199 500.027 29.546 503.882 33.1777 506.72L33.2051 506.741C37.1405 509.603 41.9411 511.008 47.5479 511.008C52.3124 511.008 56.2591 510.021 59.3027 507.957L59.3037 507.958C62.5055 505.864 64.1708 502.958 64.1709 499.31C64.1709 496.069 62.6752 493.27 59.8604 490.939C57.0748 488.633 52.9747 486.76 47.6475 485.271L47.6396 485.269L47.6309 485.266L35.9219 482.211C25.9819 479.53 18.2338 475.195 12.6143 469.245C7.03169 463.334 4.16946 455.944 4.05664 447.006C4.05672 436.045 7.69782 427.448 14.9248 421.097L14.9258 421.096C22.2868 414.614 32.107 411.326 44.4912 411.326Z" stroke="white" stroke-opacity="0.2" stroke-width="2"/>
<path d="M480.663 151C497.604 151 512.009 157.007 523.935 169.044L523.938 169.047C535.979 181.088 541.985 195.496 541.985 212.322C541.985 229.148 535.979 243.555 523.938 255.597L523.935 255.601C512.009 267.638 497.604 273.645 480.663 273.645C463.719 273.645 449.254 267.692 437.215 255.764C425.291 243.726 419.341 229.263 419.341 212.322C419.341 195.378 425.293 180.972 437.218 169.047C449.258 157.007 463.722 151 480.663 151ZM480.663 175.151C470.65 175.151 462.071 178.832 454.981 186.154L454.976 186.16C448.006 193.478 444.512 202.216 444.512 212.322C444.512 222.428 448.006 231.166 454.976 238.484L454.981 238.49C462.071 245.813 470.65 249.493 480.663 249.493C490.676 249.493 499.201 245.812 506.18 238.484C513.149 231.166 516.645 222.428 516.645 212.322C516.645 202.216 513.149 193.478 506.18 186.16C499.201 178.833 490.676 175.151 480.663 175.151Z" stroke="white" stroke-opacity="0.2" stroke-width="2"/>
<path d="M414.863 153.038V271.606H389.862V153.038H414.863Z" stroke="white" stroke-opacity="0.2" stroke-width="2"/>
<path d="M324.699 153.038C341.421 153.038 355.659 158.824 367.47 170.413C379.281 182.001 385.171 195.952 385.172 212.322C385.172 228.692 379.281 242.644 367.47 254.232C355.659 265.82 341.421 271.606 324.699 271.606H284.603V153.038H324.699ZM309.604 248.813H324.699C334.597 248.813 342.811 245.533 349.264 238.954L349.882 238.307C356.518 231.205 359.832 222.523 359.832 212.322C359.832 202.121 356.518 193.491 349.877 186.5C343.336 179.383 334.915 175.831 324.699 175.831H309.604V248.813Z" stroke="white" stroke-opacity="0.2" stroke-width="2"/>
<path d="M206.735 153.038V225.228C206.735 232.56 208.836 238.492 213.131 242.907L213.141 242.917C217.545 247.321 223.304 249.493 230.32 249.493C237.335 249.493 243.045 247.321 247.339 242.907L247.338 242.906C251.745 238.493 253.906 232.562 253.906 225.228V153.038H278.906V224.888C278.906 239.607 274.343 251.393 265.278 260.347C256.32 269.194 244.699 273.644 230.32 273.644C216.39 273.644 204.992 269.468 196.045 261.16L195.187 260.343C186.239 251.391 181.734 239.606 181.734 224.888V153.038H206.735Z" stroke="white" stroke-opacity="0.2" stroke-width="2"/>
<path d="M176.446 153.038V176.849H145.37V271.606H120.199V176.849H89.4631V153.038H176.446Z" stroke="white" stroke-opacity="0.2" stroke-width="2"/>
<path d="M44.4912 151C56.952 151 66.9909 154.775 74.7012 162.265L74.7061 162.27C82.1838 169.427 86.2215 177.563 86.9004 186.699H61.877C60.5539 182.475 58.3587 179.27 55.2354 177.188C52.0115 175.038 48.421 173.963 44.4912 173.963C40.1743 173.963 36.5705 174.838 33.7568 176.673C30.874 178.553 29.3521 181.289 29.2275 184.776C29.1036 188.246 30.3606 191.144 32.9727 193.383L32.9814 193.391L32.9902 193.397C35.6355 195.562 39.5241 197.307 44.5684 198.683L44.5801 198.687L58.3262 202.249V202.25C68.261 204.929 75.8857 209.317 81.2744 215.365L81.2803 215.372C86.7535 221.393 89.5117 228.955 89.5117 238.134C89.5117 248.255 85.6779 256.699 77.9678 263.531C70.2626 270.246 60.1538 273.645 47.5479 273.645C33.7156 273.644 22.658 269.635 14.2734 261.691C6.11759 253.965 1.73439 245.04 1.05566 234.889H26.1807C27.2199 239.701 29.546 243.556 33.1777 246.394L33.2051 246.415C37.1405 249.277 41.9411 250.682 47.5479 250.682C52.3124 250.682 56.2591 249.695 59.3027 247.631L59.3037 247.632C62.5055 245.538 64.1708 242.632 64.1709 238.983C64.1709 235.743 62.6752 232.944 59.8604 230.613C57.0748 228.307 52.9747 226.434 47.6475 224.944L47.6396 224.942L47.6309 224.939L35.9219 221.885C25.9819 219.204 18.2338 214.869 12.6143 208.919C7.03169 203.008 4.16946 195.618 4.05664 186.68C4.05672 175.719 7.69782 167.121 14.9248 160.771L14.9258 160.77C22.2868 154.288 32.107 151 44.4912 151Z" stroke="white" stroke-opacity="0.2" stroke-width="2"/>
<path d="M480.663 21C497.604 21 512.009 27.0068 523.935 39.0439L523.938 39.0469C535.979 51.0884 541.985 65.4962 541.985 82.3223C541.985 99.1483 535.979 113.555 523.938 125.597L523.935 125.601C512.009 137.638 497.604 143.645 480.663 143.645C463.719 143.645 449.254 137.692 437.215 125.764C425.291 113.726 419.341 99.2634 419.341 82.3223C419.341 65.3782 425.293 50.9719 437.218 39.0469C449.258 27.0067 463.722 21 480.663 21ZM480.663 45.1514C470.65 45.1514 462.071 48.8318 454.981 56.1543L454.976 56.1602C448.006 63.4783 444.512 72.2163 444.512 82.3223C444.512 92.4282 448.006 101.166 454.976 108.484L454.981 108.49C462.071 115.813 470.65 119.493 480.663 119.493C490.676 119.493 499.201 115.812 506.18 108.484C513.149 101.166 516.645 92.4283 516.645 82.3223C516.645 72.2162 513.149 63.4783 506.18 56.1602C499.201 48.8325 490.676 45.1514 480.663 45.1514Z" stroke="white" stroke-opacity="0.2" stroke-width="2"/>
<path d="M414.863 23.0376V141.606H389.862V23.0376H414.863Z" stroke="white" stroke-opacity="0.2" stroke-width="2"/>
<path d="M324.699 23.0376C341.421 23.0377 355.659 28.8244 367.47 40.4126C379.281 52.0005 385.171 65.9516 385.172 82.3218C385.172 98.6921 379.281 112.644 367.47 124.232C355.659 135.82 341.421 141.606 324.699 141.606H284.603V23.0376H324.699ZM309.604 118.813H324.699C334.597 118.813 342.811 115.533 349.264 108.954L349.882 108.307C356.518 101.205 359.832 92.5227 359.832 82.3218C359.832 72.1209 356.518 63.4915 349.877 56.5005C343.336 49.3828 334.915 45.8307 324.699 45.8306H309.604V118.813Z" stroke="white" stroke-opacity="0.2" stroke-width="2"/>
<path d="M206.735 23.0376V95.228C206.735 102.56 208.836 108.492 213.131 112.907L213.141 112.917C217.545 117.321 223.304 119.493 230.32 119.493C237.335 119.493 243.045 117.321 247.339 112.907L247.338 112.906C251.745 108.493 253.906 102.562 253.906 95.228V23.0376H278.906V94.8882C278.906 109.607 274.343 121.393 265.278 130.347C256.32 139.194 244.699 143.644 230.32 143.644C216.39 143.644 204.992 139.468 196.045 131.16L195.187 130.343C186.239 121.391 181.734 109.606 181.734 94.8882V23.0376H206.735Z" stroke="white" stroke-opacity="0.2" stroke-width="2"/>
<path d="M176.446 23.0376V46.8491H145.37V141.606H120.199V46.8491H89.4631V23.0376H176.446Z" stroke="white" stroke-opacity="0.2" stroke-width="2"/>
<path d="M44.4912 21C56.952 21 66.9909 24.7747 74.7012 32.2646L74.7061 32.2695C82.1838 39.4268 86.2215 47.5625 86.9004 56.6992H61.877C60.5539 52.4752 58.3587 49.2698 55.2354 47.1875C52.0115 45.0382 48.421 43.9629 44.4912 43.9629C40.1743 43.9629 36.5705 44.8379 33.7568 46.6729C30.874 48.553 29.3521 51.2893 29.2275 54.7764C29.1036 58.2459 30.3606 61.1439 32.9727 63.3828L32.9814 63.3906L32.9902 63.3975C35.6355 65.5618 39.5241 67.3069 44.5684 68.6826L44.5801 68.6865L58.3262 72.249V72.25C68.261 74.9291 75.8857 79.3167 81.2744 85.3652L81.2803 85.3721C86.7535 91.3926 89.5117 98.9549 89.5117 108.134C89.5117 118.255 85.6779 126.699 77.9678 133.531C70.2626 140.246 60.1538 143.645 47.5479 143.645C33.7156 143.644 22.658 139.635 14.2734 131.691C6.11759 123.965 1.73439 115.04 1.05566 104.889H26.1807C27.2199 109.701 29.546 113.556 33.1777 116.394L33.2051 116.415C37.1405 119.277 41.9411 120.682 47.5479 120.682C52.3124 120.682 56.2591 119.695 59.3027 117.631L59.3037 117.632C62.5055 115.538 64.1708 112.632 64.1709 108.983C64.1709 105.743 62.6752 102.944 59.8604 100.613C57.0748 98.3071 52.9747 96.4337 47.6475 94.9443L47.6396 94.9424L47.6309 94.9395L35.9219 91.8848C25.9819 89.2043 18.2338 84.8689 12.6143 78.9189C7.03169 73.008 4.16946 65.618 4.05664 56.6797C4.05672 45.7191 7.69782 37.1215 14.9248 30.7705L14.9258 30.7695C22.2868 24.2876 32.107 21.0001 44.4912 21Z" stroke="white" stroke-opacity="0.2" stroke-width="2"/>
<path d="M502.939 542.433C514.082 542.433 523.18 545.819 530.183 552.622H530.182C537.157 559.3 540.868 567.001 541.269 575.714L541.292 576.237H517.043L516.94 575.873C515.881 572.116 514.066 569.422 511.528 567.73C508.952 566.013 506.093 565.154 502.939 565.154C499.359 565.154 496.507 565.881 494.347 567.29C492.221 568.677 491.12 570.644 491.027 573.243C490.934 575.852 491.857 577.97 493.809 579.643C495.898 581.348 499.067 582.8 503.36 583.972H503.361L515.33 587.074L515.335 587.076C524.171 589.459 531.061 593.391 535.967 598.896L536.43 599.418C541.139 604.851 543.485 611.598 543.485 619.624C543.485 628.833 539.974 636.554 532.973 642.755L532.97 642.758C525.964 648.863 516.825 651.895 505.6 651.895C493.281 651.895 483.299 648.315 475.702 641.118C468.13 633.945 464.125 625.55 463.725 615.951L463.703 615.431H488.137L488.212 615.841C488.979 620.062 490.887 623.343 493.925 625.722L494.222 625.934C497.319 628.085 501.103 629.173 505.6 629.173C509.573 629.173 512.716 628.349 515.071 626.747L515.079 626.742C517.511 625.152 518.694 623.037 518.694 620.363C518.694 618.028 517.639 615.956 515.44 614.136C513.227 612.303 509.867 610.739 505.317 609.467V609.466L495.13 606.809L495.126 606.808C486.291 604.425 479.306 600.544 474.205 595.143C469.087 589.723 466.485 582.949 466.385 574.856V574.851C466.385 564.975 469.683 557.097 476.307 551.275L476.942 550.73C483.577 545.185 492.258 542.433 502.939 542.433Z" stroke="#F3F3E2" stroke-opacity="0.3"/>
<path d="M376.441 544.206L376.591 544.413L408.843 589.071L441.391 544.411L441.541 544.206H463.721V650.122H439.079V586.588L409.395 627.601L408.991 628.161L408.586 627.601L378.755 586.441V650.122H354.259V544.206H376.441Z" stroke="#F3F3E2" stroke-opacity="0.3"/>
<path d="M282.128 544.206V585.286H323.39V544.206H347.885V650.122H323.39V608.598H282.128V650.122H257.633V544.206H282.128Z" stroke="#F3F3E2" stroke-opacity="0.3"/>
<path d="M249.915 544.206V650.122H227.636V627.956H197.133L182.026 649.905L181.877 650.122H149.864L150.451 649.325L227.733 544.409L227.883 544.206H249.915ZM210.655 606.564H227.636V582.716L210.655 606.564Z" stroke="#F3F3E2" stroke-opacity="0.3"/>
<path d="M120.397 544.206C130.166 544.206 138.133 547.301 144.248 553.516C150.353 559.721 153.405 567.336 153.405 576.328C153.405 583.018 151.669 588.684 148.169 593.292C144.784 597.747 139.779 601.177 133.193 603.602L169.846 649.308L170.498 650.122H140.993L140.843 649.936L105.973 606.825H103.017V650.122H78.5215V544.206H120.397ZM103.017 585.876H117.589C121.045 585.876 123.777 584.966 125.833 583.19L125.841 583.183L126.232 582.844C128.12 581.121 129.059 578.959 129.059 576.328C129.059 573.312 127.983 571.002 125.852 569.333L125.843 569.327C123.787 567.644 121.051 566.78 117.589 566.78H103.017V585.876Z" stroke="#F3F3E2" stroke-opacity="0.3"/>
<path d="M39.4541 544.206C48.1583 544.206 55.6245 547.313 61.8252 553.514H61.8242C68.0272 559.618 71.1327 567.085 71.1328 575.885C71.1328 582.793 68.7232 588.768 63.9189 593.787C68.2532 596.172 71.7199 599.477 74.3105 603.699H74.3096C77.1201 608.118 78.5215 613.136 78.5215 618.738C78.5214 627.539 75.4154 635.008 69.2109 641.112L69.208 641.115C63.0004 647.123 55.2869 650.122 46.1035 650.122H-0.5V544.206H39.4541ZM23.9951 627.548H44.1826C47.2167 627.548 49.6967 626.605 51.6611 624.738C53.6349 622.764 54.6172 620.38 54.6172 617.556C54.6171 614.74 53.5922 612.412 51.5303 610.537L51.5215 610.529L51.5127 610.521C49.5456 608.554 47.066 607.564 44.0352 607.564H23.9951V627.548ZM23.9951 586.615H36.7939C39.8324 586.615 42.3154 585.67 44.2812 583.798C46.247 581.926 47.2295 579.595 47.2295 576.771C47.2294 573.947 46.2463 571.563 44.2725 569.589C42.3052 567.622 39.825 566.633 36.7939 566.633H23.9951V586.615Z" stroke="#F3F3E2" stroke-opacity="0.3"/>
<path d="M502.939 666.232C514.082 666.232 523.18 669.619 530.183 676.422H530.182C537.157 683.1 540.868 690.801 541.269 699.514L541.292 700.037H517.043L516.94 699.673C515.881 695.916 514.066 693.222 511.528 691.53C508.952 689.813 506.093 688.954 502.939 688.954C499.359 688.954 496.507 689.681 494.347 691.09C492.221 692.477 491.12 694.443 491.027 697.043C490.934 699.651 491.857 701.77 493.809 703.442C495.898 705.148 499.067 706.6 503.36 707.771H503.361L515.33 710.874L515.335 710.876C524.171 713.259 531.061 717.191 535.967 722.696L536.43 723.218C541.139 728.651 543.485 735.398 543.485 743.424C543.485 752.633 539.974 760.354 532.973 766.555L532.97 766.558C525.964 772.662 516.825 775.694 505.6 775.694C493.281 775.694 483.299 772.115 475.702 764.918C468.13 757.744 464.125 749.35 463.725 739.751L463.703 739.23H488.137L488.212 739.641C488.979 743.861 490.887 747.143 493.925 749.521L494.222 749.733C497.319 751.885 501.103 752.973 505.6 752.973C509.573 752.973 512.716 752.148 515.071 750.547L515.079 750.542C517.511 748.952 518.694 746.837 518.694 744.163C518.694 741.828 517.639 739.756 515.44 737.936C513.227 736.103 509.867 734.538 505.317 733.267V733.266L495.13 730.608L495.126 730.607C486.291 728.225 479.306 724.344 474.205 718.942C469.087 713.523 466.485 706.749 466.385 698.656V698.65C466.385 688.774 469.683 680.896 476.307 675.075L476.942 674.53C483.577 668.984 492.258 666.232 502.939 666.232Z" stroke="#F3F3E2" stroke-opacity="0.3"/>
<path d="M376.441 668.005L376.591 668.212L408.843 712.871L441.391 668.21L441.541 668.005H463.721V773.921H439.079V710.388L409.395 751.401L408.991 751.96L408.586 751.401L378.755 710.241V773.921H354.259V668.005H376.441Z" stroke="#F3F3E2" stroke-opacity="0.3"/>
<path d="M282.128 668.005V709.085H323.39V668.005H347.885V773.921H323.39V732.398H282.128V773.921H257.633V668.005H282.128Z" stroke="#F3F3E2" stroke-opacity="0.3"/>
<path d="M249.915 668.005V773.921H227.636V751.755H197.133L182.026 773.705L181.877 773.921H149.864L150.451 773.125L227.733 668.208L227.883 668.005H249.915ZM210.655 730.364H227.636V706.516L210.655 730.364Z" stroke="#F3F3E2" stroke-opacity="0.3"/>
<path d="M120.397 668.005C130.166 668.005 138.133 671.1 144.248 677.316C150.353 683.521 153.405 691.135 153.405 700.127C153.405 706.818 151.669 712.483 148.169 717.091C144.784 721.547 139.779 724.977 133.193 727.402L169.846 773.108L170.498 773.921H140.993L140.843 773.736L105.973 730.625H103.017V773.921H78.5215V668.005H120.397ZM103.017 709.676H117.589C121.045 709.676 123.777 708.766 125.833 706.99L125.841 706.983L126.232 706.644C128.12 704.921 129.059 702.759 129.059 700.127C129.059 697.112 127.983 694.802 125.852 693.133L125.843 693.126C123.787 691.444 121.051 690.58 117.589 690.58H103.017V709.676Z" stroke="#F3F3E2" stroke-opacity="0.3"/>
<path d="M39.4541 668.006C48.1583 668.006 55.6245 671.113 61.8252 677.313H61.8242C68.0272 683.417 71.1327 690.884 71.1328 699.685C71.1328 706.593 68.7232 712.568 63.9189 717.587C68.2532 719.972 71.7199 723.277 74.3105 727.499H74.3096C77.1201 731.918 78.5215 736.936 78.5215 742.538C78.5214 751.339 75.4154 758.808 69.2109 764.912L69.208 764.915C63.0004 770.922 55.2869 773.922 46.1035 773.922H-0.5V668.006H39.4541ZM23.9951 751.348H44.1826C47.2167 751.348 49.6967 750.405 51.6611 748.538C53.6349 746.564 54.6172 744.18 54.6172 741.355C54.6171 738.54 53.5922 736.211 51.5303 734.337L51.5215 734.329L51.5127 734.32C49.5456 732.353 47.066 731.364 44.0352 731.364H23.9951V751.348ZM23.9951 710.415H36.7939C39.8324 710.415 42.3154 709.47 44.2812 707.598C46.247 705.725 47.2295 703.395 47.2295 700.571C47.2294 697.747 46.2463 695.363 44.2725 693.389C42.3052 691.422 39.825 690.433 36.7939 690.433H23.9951V710.415Z" stroke="#F3F3E2" stroke-opacity="0.3"/>
<path d="M502.939 786.232C514.082 786.232 523.18 789.619 530.183 796.422H530.182C537.157 803.1 540.868 810.801 541.269 819.514L541.292 820.037H517.043L516.94 819.673C515.881 815.916 514.066 813.222 511.528 811.53C508.952 809.813 506.093 808.954 502.939 808.954C499.359 808.954 496.507 809.681 494.347 811.09C492.221 812.477 491.12 814.443 491.027 817.043C490.934 819.651 491.857 821.77 493.809 823.442C495.898 825.148 499.067 826.6 503.36 827.771H503.361L515.33 830.874L515.335 830.876C524.171 833.259 531.061 837.191 535.967 842.696L536.43 843.218C541.139 848.651 543.485 855.398 543.485 863.424C543.485 872.633 539.974 880.354 532.973 886.555L532.97 886.558C525.964 892.662 516.825 895.694 505.6 895.694C493.281 895.694 483.299 892.115 475.702 884.918C468.13 877.744 464.125 869.35 463.725 859.751L463.703 859.23H488.137L488.212 859.641C488.979 863.861 490.887 867.143 493.925 869.521L494.222 869.733C497.319 871.885 501.103 872.973 505.6 872.973C509.573 872.973 512.716 872.148 515.071 870.547L515.079 870.542C517.511 868.952 518.694 866.837 518.694 864.163C518.694 861.828 517.639 859.756 515.44 857.936C513.227 856.103 509.867 854.538 505.317 853.267V853.266L495.13 850.608L495.126 850.607C486.291 848.225 479.306 844.344 474.205 838.942C469.087 833.523 466.485 826.749 466.385 818.656V818.65C466.385 808.774 469.683 800.896 476.307 795.075L476.942 794.53C483.577 788.984 492.258 786.232 502.939 786.232Z" stroke="#F3F3E2" stroke-opacity="0.3"/>
<path d="M376.441 788.005L376.591 788.212L408.843 832.871L441.391 788.21L441.541 788.005H463.721V893.921H439.079V830.388L409.395 871.401L408.991 871.96L408.586 871.401L378.755 830.241V893.921H354.259V788.005H376.441Z" stroke="#F3F3E2" stroke-opacity="0.3"/>
<path d="M282.128 788.005V829.085H323.39V788.005H347.885V893.921H323.39V852.398H282.128V893.921H257.633V788.005H282.128Z" stroke="#F3F3E2" stroke-opacity="0.3"/>
<path d="M249.915 788.005V893.921H227.636V871.755H197.133L182.026 893.705L181.877 893.921H149.864L150.451 893.125L227.733 788.208L227.883 788.005H249.915ZM210.655 850.364H227.636V826.516L210.655 850.364Z" stroke="#F3F3E2" stroke-opacity="0.3"/>
<path d="M120.397 788.005C130.166 788.005 138.133 791.1 144.248 797.316C150.353 803.521 153.405 811.135 153.405 820.127C153.405 826.818 151.669 832.483 148.169 837.091C144.784 841.547 139.779 844.977 133.193 847.402L169.846 893.108L170.498 893.921H140.993L140.843 893.736L105.973 850.625H103.017V893.921H78.5215V788.005H120.397ZM103.017 829.676H117.589C121.045 829.676 123.777 828.766 125.833 826.99L125.841 826.983L126.232 826.644C128.12 824.921 129.059 822.759 129.059 820.127C129.059 817.112 127.983 814.802 125.852 813.133L125.843 813.126C123.787 811.444 121.051 810.58 117.589 810.58H103.017V829.676Z" stroke="#F3F3E2" stroke-opacity="0.3"/>
<path d="M39.4541 788.006C48.1583 788.006 55.6245 791.113 61.8252 797.313H61.8242C68.0272 803.417 71.1327 810.884 71.1328 819.685C71.1328 826.593 68.7232 832.568 63.9189 837.587C68.2532 839.972 71.7199 843.277 74.3105 847.499H74.3096C77.1201 851.918 78.5215 856.936 78.5215 862.538C78.5214 871.339 75.4154 878.808 69.2109 884.912L69.208 884.915C63.0004 890.922 55.2869 893.922 46.1035 893.922H-0.5V788.006H39.4541ZM23.9951 871.348H44.1826C47.2167 871.348 49.6967 870.405 51.6611 868.538C53.6349 866.564 54.6172 864.18 54.6172 861.355C54.6171 858.54 53.5922 856.211 51.5303 854.337L51.5215 854.329L51.5127 854.32C49.5456 852.353 47.066 851.364 44.0352 851.364H23.9951V871.348ZM23.9951 830.415H36.7939C39.8324 830.415 42.3154 829.47 44.2812 827.598C46.247 825.725 47.2295 823.395 47.2295 820.571C47.2294 817.747 46.2463 815.363 44.2725 813.389C42.3052 811.422 39.825 810.433 36.7939 810.433H23.9951V830.415Z" stroke="#F3F3E2" stroke-opacity="0.3"/>
<path d="M1044.66 278.645C1061.6 278.645 1076.01 284.651 1087.93 296.688L1087.94 296.691C1099.98 308.733 1105.99 323.141 1105.99 339.967C1105.99 356.793 1099.98 371.2 1087.94 383.241L1087.93 383.245C1076.01 395.282 1061.6 401.289 1044.66 401.289C1027.72 401.289 1013.25 395.336 1001.21 383.408C989.291 371.37 983.341 356.908 983.341 339.967C983.341 323.023 989.293 308.616 1001.22 296.691C1013.26 284.651 1027.72 278.645 1044.66 278.645ZM1044.66 302.796C1034.65 302.796 1026.07 306.476 1018.98 313.799L1018.98 313.805C1012.01 321.123 1008.51 329.861 1008.51 339.967C1008.51 350.073 1012.01 358.811 1018.98 366.129L1018.98 366.135C1026.07 373.457 1034.65 377.138 1044.66 377.138C1054.68 377.138 1063.2 373.456 1070.18 366.129C1077.15 358.811 1080.64 350.073 1080.64 339.967C1080.64 329.861 1077.15 321.123 1070.18 313.805C1063.2 306.477 1054.68 302.796 1044.66 302.796Z" stroke="white" stroke-opacity="0.2" stroke-width="2"/>
<path d="M978.863 280.682V399.25H953.862V280.682H978.863Z" stroke="white" stroke-opacity="0.2" stroke-width="2"/>
<path d="M888.699 280.682C905.421 280.682 919.659 286.469 931.47 298.057C943.281 309.645 949.171 323.596 949.172 339.966C949.172 356.337 943.281 370.289 931.47 381.876C919.659 393.465 905.421 399.25 888.699 399.25H848.603V280.682H888.699ZM873.604 376.458H888.699C898.597 376.457 906.811 373.177 913.264 366.598L913.882 365.952C920.518 358.85 923.832 350.167 923.832 339.966C923.832 329.765 920.518 321.136 913.877 314.145C907.336 307.027 898.915 303.475 888.699 303.475H873.604V376.458Z" stroke="white" stroke-opacity="0.2" stroke-width="2"/>
<path d="M770.735 280.682V352.873C770.735 360.204 772.836 366.136 777.131 370.551L777.141 370.561C781.545 374.965 787.304 377.137 794.32 377.137C801.335 377.137 807.045 374.965 811.339 370.551L811.338 370.55C815.745 366.138 817.906 360.207 817.906 352.873V280.682H842.906V352.533C842.906 367.251 838.343 379.037 829.278 387.992C820.32 396.838 808.699 401.289 794.32 401.289C780.39 401.289 768.992 397.112 760.045 388.804L759.187 387.988C750.239 379.035 745.734 367.25 745.734 352.533V280.682H770.735Z" stroke="white" stroke-opacity="0.2" stroke-width="2"/>
<path d="M740.446 280.682V304.494H709.37V399.25H684.199V304.494H653.463V280.682H740.446Z" stroke="white" stroke-opacity="0.2" stroke-width="2"/>
<path d="M608.491 278.645C620.952 278.645 630.991 282.419 638.701 289.909L638.706 289.914C646.184 297.071 650.222 305.207 650.9 314.344H625.877C624.554 310.12 622.359 306.914 619.235 304.832C616.011 302.683 612.421 301.607 608.491 301.607C604.174 301.607 600.57 302.482 597.757 304.317C594.874 306.197 593.352 308.934 593.228 312.421C593.104 315.89 594.361 318.788 596.973 321.027L596.981 321.035L596.99 321.042C599.635 323.206 603.524 324.951 608.568 326.327L608.58 326.331L622.326 329.894V329.895C632.261 332.574 639.886 336.961 645.274 343.01L645.28 343.017C650.753 349.037 653.512 356.599 653.512 365.778C653.512 375.899 649.678 384.344 641.968 391.176C634.263 397.89 624.154 401.289 611.548 401.289C597.716 401.289 586.658 397.279 578.273 389.336C570.118 381.609 565.734 372.685 565.056 362.533H590.181C591.22 367.345 593.546 371.201 597.178 374.038L597.205 374.06C601.14 376.922 605.941 378.326 611.548 378.326C616.312 378.326 620.259 377.339 623.303 375.275L623.304 375.276C626.505 373.183 628.171 370.276 628.171 366.628C628.171 363.387 626.675 360.588 623.86 358.258C621.075 355.952 616.975 354.078 611.647 352.589L611.64 352.587L611.631 352.584L599.922 349.529C589.982 346.849 582.234 342.513 576.614 336.563C571.032 330.653 568.169 323.263 568.057 314.324C568.057 303.364 571.698 294.766 578.925 288.415L578.926 288.414C586.287 281.932 596.107 278.645 608.491 278.645Z" stroke="white" stroke-opacity="0.2" stroke-width="2"/>
<path d="M1044.66 411.326C1061.6 411.326 1076.01 417.333 1087.93 429.37L1087.94 429.373C1099.98 441.415 1105.99 455.822 1105.99 472.648C1105.99 489.474 1099.98 503.881 1087.94 515.923L1087.93 515.927C1076.01 527.964 1061.6 533.971 1044.66 533.971C1027.72 533.971 1013.25 528.018 1001.21 516.09C989.291 504.052 983.341 489.59 983.341 472.648C983.341 455.704 989.293 441.298 1001.22 429.373C1013.26 417.333 1027.72 411.326 1044.66 411.326ZM1044.66 435.478C1034.65 435.478 1026.07 439.158 1018.98 446.48L1018.98 446.486C1012.01 453.804 1008.51 462.542 1008.51 472.648C1008.51 482.754 1012.01 491.492 1018.98 498.811L1018.98 498.816C1026.07 506.139 1034.65 509.819 1044.66 509.819C1054.68 509.819 1063.2 506.138 1070.18 498.811C1077.15 491.492 1080.64 482.754 1080.64 472.648C1080.64 462.542 1077.15 453.804 1070.18 446.486C1063.2 439.159 1054.68 435.478 1044.66 435.478Z" stroke="white" stroke-opacity="0.2" stroke-width="2"/>
<path d="M978.863 413.364V531.932H953.862V413.364H978.863Z" stroke="white" stroke-opacity="0.2" stroke-width="2"/>
<path d="M888.699 413.364C905.421 413.364 919.659 419.151 931.47 430.739C943.281 442.327 949.171 456.278 949.172 472.648C949.172 489.018 943.281 502.97 931.47 514.558C919.659 526.146 905.421 531.932 888.699 531.932H848.603V413.364H888.699ZM873.604 509.139H888.699C898.597 509.139 906.811 505.859 913.264 499.28L913.882 498.633C920.518 491.532 923.832 482.849 923.832 472.648C923.832 462.447 920.518 453.818 913.877 446.827C907.336 439.709 898.915 436.157 888.699 436.157H873.604V509.139Z" stroke="white" stroke-opacity="0.2" stroke-width="2"/>
<path d="M770.735 413.364V485.554C770.735 492.886 772.836 498.818 777.131 503.233L777.141 503.243C781.545 507.647 787.304 509.819 794.32 509.819C801.335 509.819 807.045 507.647 811.339 503.233L811.338 503.232C815.745 498.819 817.906 492.888 817.906 485.554V413.364H842.906V485.214C842.906 499.933 838.343 511.719 829.278 520.673C820.32 529.52 808.699 533.97 794.32 533.97C780.39 533.97 768.992 529.794 760.045 521.486L759.187 520.669C750.239 511.717 745.734 499.932 745.734 485.214V413.364H770.735Z" stroke="white" stroke-opacity="0.2" stroke-width="2"/>
<path d="M740.446 413.364V437.175H709.37V531.932H684.199V437.175H653.463V413.364H740.446Z" stroke="white" stroke-opacity="0.2" stroke-width="2"/>
<path d="M608.491 411.326C620.952 411.326 630.991 415.101 638.701 422.591L638.706 422.596C646.184 429.753 650.222 437.889 650.9 447.025H625.877C624.554 442.801 622.359 439.596 619.235 437.514C616.011 435.364 612.421 434.289 608.491 434.289C604.174 434.289 600.57 435.164 597.757 436.999C594.874 438.879 593.352 441.615 593.228 445.103C593.104 448.572 594.361 451.47 596.973 453.709L596.981 453.717L596.99 453.724C599.635 455.888 603.524 457.633 608.568 459.009L608.58 459.013L622.326 462.575V462.576C632.261 465.255 639.886 469.643 645.274 475.691L645.28 475.698C650.753 481.719 653.512 489.281 653.512 498.46C653.512 508.581 649.678 517.026 641.968 523.857C634.263 530.572 624.154 533.971 611.548 533.971C597.716 533.971 586.658 529.961 578.273 522.018C570.118 514.291 565.734 505.366 565.056 495.215H590.181C591.22 500.027 593.546 503.882 597.178 506.72L597.205 506.741C601.14 509.603 605.941 511.008 611.548 511.008C616.312 511.008 620.259 510.021 623.303 507.957L623.304 507.958C626.505 505.864 628.171 502.958 628.171 499.31C628.171 496.069 626.675 493.27 623.86 490.939C621.075 488.633 616.975 486.76 611.647 485.271L611.64 485.269L611.631 485.266L599.922 482.211C589.982 479.53 582.234 475.195 576.614 469.245C571.032 463.334 568.169 455.944 568.057 447.006C568.057 436.045 571.698 427.448 578.925 421.097L578.926 421.096C586.287 414.614 596.107 411.326 608.491 411.326Z" stroke="white" stroke-opacity="0.2" stroke-width="2"/>
<path d="M1044.66 151C1061.6 151 1076.01 157.007 1087.93 169.044L1087.94 169.047C1099.98 181.088 1105.99 195.496 1105.99 212.322C1105.99 229.148 1099.98 243.555 1087.94 255.597L1087.93 255.601C1076.01 267.638 1061.6 273.645 1044.66 273.645C1027.72 273.645 1013.25 267.692 1001.21 255.764C989.291 243.726 983.341 229.263 983.341 212.322C983.341 195.378 989.293 180.972 1001.22 169.047C1013.26 157.007 1027.72 151 1044.66 151ZM1044.66 175.151C1034.65 175.151 1026.07 178.832 1018.98 186.154L1018.98 186.16C1012.01 193.478 1008.51 202.216 1008.51 212.322C1008.51 222.428 1012.01 231.166 1018.98 238.484L1018.98 238.49C1026.07 245.813 1034.65 249.493 1044.66 249.493C1054.68 249.493 1063.2 245.812 1070.18 238.484C1077.15 231.166 1080.64 222.428 1080.64 212.322C1080.64 202.216 1077.15 193.478 1070.18 186.16C1063.2 178.833 1054.68 175.151 1044.66 175.151Z" stroke="white" stroke-opacity="0.2" stroke-width="2"/>
<path d="M978.863 153.038V271.606H953.862V153.038H978.863Z" stroke="white" stroke-opacity="0.2" stroke-width="2"/>
<path d="M888.699 153.038C905.421 153.038 919.659 158.824 931.47 170.413C943.281 182.001 949.171 195.952 949.172 212.322C949.172 228.692 943.281 242.644 931.47 254.232C919.659 265.82 905.421 271.606 888.699 271.606H848.603V153.038H888.699ZM873.604 248.813H888.699C898.597 248.813 906.811 245.533 913.264 238.954L913.882 238.307C920.518 231.205 923.832 222.523 923.832 212.322C923.832 202.121 920.518 193.491 913.877 186.5C907.336 179.383 898.915 175.831 888.699 175.831H873.604V248.813Z" stroke="white" stroke-opacity="0.2" stroke-width="2"/>
<path d="M770.735 153.038V225.228C770.735 232.56 772.836 238.492 777.131 242.907L777.141 242.917C781.545 247.321 787.304 249.493 794.32 249.493C801.335 249.493 807.045 247.321 811.339 242.907L811.338 242.906C815.745 238.493 817.906 232.562 817.906 225.228V153.038H842.906V224.888C842.906 239.607 838.343 251.393 829.278 260.347C820.32 269.194 808.699 273.644 794.32 273.644C780.39 273.644 768.992 269.468 760.045 261.16L759.187 260.343C750.239 251.391 745.734 239.606 745.734 224.888V153.038H770.735Z" stroke="white" stroke-opacity="0.2" stroke-width="2"/>
<path d="M740.446 153.038V176.849H709.37V271.606H684.199V176.849H653.463V153.038H740.446Z" stroke="white" stroke-opacity="0.2" stroke-width="2"/>
<path d="M608.491 151C620.952 151 630.991 154.775 638.701 162.265L638.706 162.27C646.184 169.427 650.222 177.563 650.9 186.699H625.877C624.554 182.475 622.359 179.27 619.235 177.188C616.011 175.038 612.421 173.963 608.491 173.963C604.174 173.963 600.57 174.838 597.757 176.673C594.874 178.553 593.352 181.289 593.228 184.776C593.104 188.246 594.361 191.144 596.973 193.383L596.981 193.391L596.99 193.397C599.635 195.562 603.524 197.307 608.568 198.683L608.58 198.687L622.326 202.249V202.25C632.261 204.929 639.886 209.317 645.274 215.365L645.28 215.372C650.753 221.393 653.512 228.955 653.512 238.134C653.512 248.255 649.678 256.699 641.968 263.531C634.263 270.246 624.154 273.645 611.548 273.645C597.716 273.644 586.658 269.635 578.273 261.691C570.118 253.965 565.734 245.04 565.056 234.889H590.181C591.22 239.701 593.546 243.556 597.178 246.394L597.205 246.415C601.14 249.277 605.941 250.682 611.548 250.682C616.312 250.682 620.259 249.695 623.303 247.631L623.304 247.632C626.505 245.538 628.171 242.632 628.171 238.983C628.171 235.743 626.675 232.944 623.86 230.613C621.075 228.307 616.975 226.434 611.647 224.944L611.64 224.942L611.631 224.939L599.922 221.885C589.982 219.204 582.234 214.869 576.614 208.919C571.032 203.008 568.169 195.618 568.057 186.68C568.057 175.719 571.698 167.121 578.925 160.771L578.926 160.77C586.287 154.288 596.107 151 608.491 151Z" stroke="white" stroke-opacity="0.2" stroke-width="2"/>
<path d="M1044.66 21C1061.6 21 1076.01 27.0068 1087.93 39.0439L1087.94 39.0469C1099.98 51.0884 1105.99 65.4962 1105.99 82.3223C1105.99 99.1483 1099.98 113.555 1087.94 125.597L1087.93 125.601C1076.01 137.638 1061.6 143.645 1044.66 143.645C1027.72 143.645 1013.25 137.692 1001.21 125.764C989.291 113.726 983.341 99.2634 983.341 82.3223C983.341 65.3782 989.293 50.9719 1001.22 39.0469C1013.26 27.0067 1027.72 21 1044.66 21ZM1044.66 45.1514C1034.65 45.1514 1026.07 48.8318 1018.98 56.1543L1018.98 56.1602C1012.01 63.4783 1008.51 72.2163 1008.51 82.3223C1008.51 92.4282 1012.01 101.166 1018.98 108.484L1018.98 108.49C1026.07 115.813 1034.65 119.493 1044.66 119.493C1054.68 119.493 1063.2 115.812 1070.18 108.484C1077.15 101.166 1080.64 92.4283 1080.64 82.3223C1080.64 72.2162 1077.15 63.4783 1070.18 56.1602C1063.2 48.8325 1054.68 45.1514 1044.66 45.1514Z" stroke="white" stroke-opacity="0.2" stroke-width="2"/>
<path d="M978.863 23.0376V141.606H953.862V23.0376H978.863Z" stroke="white" stroke-opacity="0.2" stroke-width="2"/>
<path d="M888.699 23.0376C905.421 23.0377 919.659 28.8244 931.47 40.4126C943.281 52.0005 949.171 65.9516 949.172 82.3218C949.172 98.6921 943.281 112.644 931.47 124.232C919.659 135.82 905.421 141.606 888.699 141.606H848.603V23.0376H888.699ZM873.604 118.813H888.699C898.597 118.813 906.811 115.533 913.264 108.954L913.882 108.307C920.518 101.205 923.832 92.5227 923.832 82.3218C923.832 72.1209 920.518 63.4915 913.877 56.5005C907.336 49.3828 898.915 45.8307 888.699 45.8306H873.604V118.813Z" stroke="white" stroke-opacity="0.2" stroke-width="2"/>
<path d="M770.735 23.0376V95.228C770.735 102.56 772.836 108.492 777.131 112.907L777.141 112.917C781.545 117.321 787.304 119.493 794.32 119.493C801.335 119.493 807.045 117.321 811.339 112.907L811.338 112.906C815.745 108.493 817.906 102.562 817.906 95.228V23.0376H842.906V94.8882C842.906 109.607 838.343 121.393 829.278 130.347C820.32 139.194 808.699 143.644 794.32 143.644C780.39 143.644 768.992 139.468 760.045 131.16L759.187 130.343C750.239 121.391 745.734 109.606 745.734 94.8882V23.0376H770.735Z" stroke="white" stroke-opacity="0.2" stroke-width="2"/>
<path d="M740.446 23.0376V46.8491H709.37V141.606H684.199V46.8491H653.463V23.0376H740.446Z" stroke="white" stroke-opacity="0.2" stroke-width="2"/>
<path d="M608.491 21C620.952 21 630.991 24.7747 638.701 32.2646L638.706 32.2695C646.184 39.4268 650.222 47.5625 650.9 56.6992H625.877C624.554 52.4752 622.359 49.2698 619.235 47.1875C616.011 45.0382 612.421 43.9629 608.491 43.9629C604.174 43.9629 600.57 44.8379 597.757 46.6729C594.874 48.553 593.352 51.2893 593.228 54.7764C593.104 58.2459 594.361 61.1439 596.973 63.3828L596.981 63.3906L596.99 63.3975C599.635 65.5618 603.524 67.3069 608.568 68.6826L608.58 68.6865L622.326 72.249V72.25C632.261 74.9291 639.886 79.3167 645.274 85.3652L645.28 85.3721C650.753 91.3926 653.512 98.9549 653.512 108.134C653.512 118.255 649.678 126.699 641.968 133.531C634.263 140.246 624.154 143.645 611.548 143.645C597.716 143.644 586.658 139.635 578.273 131.691C570.118 123.965 565.734 115.04 565.056 104.889H590.181C591.22 109.701 593.546 113.556 597.178 116.394L597.205 116.415C601.14 119.277 605.941 120.682 611.548 120.682C616.312 120.682 620.259 119.695 623.303 117.631L623.304 117.632C626.505 115.538 628.171 112.632 628.171 108.983C628.171 105.743 626.675 102.944 623.86 100.613C621.075 98.3071 616.975 96.4337 611.647 94.9443L611.64 94.9424L611.631 94.9395L599.922 91.8848C589.982 89.2043 582.234 84.8689 576.614 78.9189C571.032 73.008 568.169 65.618 568.057 56.6797C568.057 45.7191 571.698 37.1215 578.925 30.7705L578.926 30.7695C586.287 24.2876 596.107 21.0001 608.491 21Z" stroke="white" stroke-opacity="0.2" stroke-width="2"/>
<path d="M1066.94 542.433C1078.08 542.433 1087.18 545.819 1094.18 552.622H1094.18C1101.16 559.3 1104.87 567.001 1105.27 575.714L1105.29 576.237H1081.04L1080.94 575.873C1079.88 572.116 1078.07 569.422 1075.53 567.73C1072.95 566.013 1070.09 565.154 1066.94 565.154C1063.36 565.154 1060.51 565.881 1058.35 567.29C1056.22 568.677 1055.12 570.644 1055.03 573.243C1054.93 575.852 1055.86 577.97 1057.81 579.643C1059.9 581.348 1063.07 582.8 1067.36 583.972H1067.36L1079.33 587.074L1079.33 587.076C1088.17 589.459 1095.06 593.391 1099.97 598.896L1100.43 599.418C1105.14 604.851 1107.49 611.598 1107.49 619.624C1107.49 628.833 1103.97 636.554 1096.97 642.755L1096.97 642.758C1089.96 648.863 1080.82 651.895 1069.6 651.895C1057.28 651.895 1047.3 648.315 1039.7 641.118C1032.13 633.945 1028.12 625.55 1027.72 615.951L1027.7 615.431H1052.14L1052.21 615.841C1052.98 620.062 1054.89 623.343 1057.92 625.722L1058.22 625.934C1061.32 628.085 1065.1 629.173 1069.6 629.173C1073.57 629.173 1076.72 628.349 1079.07 626.747L1079.08 626.742C1081.51 625.152 1082.69 623.037 1082.69 620.363C1082.69 618.028 1081.64 615.956 1079.44 614.136C1077.23 612.303 1073.87 610.739 1069.32 609.467V609.466L1059.13 606.809L1059.13 606.808C1050.29 604.425 1043.31 600.544 1038.21 595.143C1033.09 589.723 1030.48 582.949 1030.38 574.856V574.851C1030.38 564.975 1033.68 557.097 1040.31 551.275L1040.94 550.73C1047.58 545.185 1056.26 542.433 1066.94 542.433Z" stroke="#F3F3E2" stroke-opacity="0.3"/>
<path d="M940.441 544.206L940.591 544.413L972.843 589.071L1005.39 544.411L1005.54 544.206H1027.72V650.122H1003.08V586.588L973.395 627.601L972.991 628.161L972.586 627.601L942.755 586.441V650.122H918.259V544.206H940.441Z" stroke="#F3F3E2" stroke-opacity="0.3"/>
<path d="M846.128 544.206V585.286H887.39V544.206H911.885V650.122H887.39V608.598H846.128V650.122H821.633V544.206H846.128Z" stroke="#F3F3E2" stroke-opacity="0.3"/>
<path d="M813.915 544.206V650.122H791.636V627.956H761.133L746.026 649.905L745.877 650.122H713.864L714.451 649.325L791.733 544.409L791.883 544.206H813.915ZM774.655 606.564H791.636V582.716L774.655 606.564Z" stroke="#F3F3E2" stroke-opacity="0.3"/>
<path d="M684.397 544.206C694.166 544.206 702.133 547.301 708.248 553.516C714.353 559.721 717.405 567.336 717.405 576.328C717.405 583.018 715.669 588.684 712.169 593.292C708.784 597.747 703.779 601.177 697.193 603.602L733.846 649.308L734.498 650.122H704.993L704.843 649.936L669.973 606.825H667.017V650.122H642.522V544.206H684.397ZM667.017 585.876H681.589C685.045 585.876 687.777 584.966 689.833 583.19L689.841 583.183L690.232 582.844C692.12 581.121 693.059 578.959 693.059 576.328C693.059 573.312 691.983 571.002 689.852 569.333L689.843 569.327C687.787 567.644 685.051 566.78 681.589 566.78H667.017V585.876Z" stroke="#F3F3E2" stroke-opacity="0.3"/>
<path d="M603.454 544.206C612.158 544.206 619.625 547.313 625.825 553.514H625.824C632.027 559.618 635.133 567.085 635.133 575.885C635.133 582.793 632.723 588.768 627.919 593.787C632.253 596.172 635.72 599.477 638.311 603.699H638.31C641.12 608.118 642.521 613.136 642.521 618.738C642.521 627.539 639.415 635.008 633.211 641.112L633.208 641.115C627 647.123 619.287 650.122 610.104 650.122H563.5V544.206H603.454ZM587.995 627.548H608.183C611.217 627.548 613.697 626.605 615.661 624.738C617.635 622.764 618.617 620.38 618.617 617.556C618.617 614.74 617.592 612.412 615.53 610.537L615.521 610.529L615.513 610.521C613.546 608.554 611.066 607.564 608.035 607.564H587.995V627.548ZM587.995 586.615H600.794C603.832 586.615 606.315 585.67 608.281 583.798C610.247 581.926 611.229 579.595 611.229 576.771C611.229 573.947 610.246 571.563 608.272 569.589C606.305 567.622 603.825 566.633 600.794 566.633H587.995V586.615Z" stroke="#F3F3E2" stroke-opacity="0.3"/>
<path d="M1066.94 666.232C1078.08 666.232 1087.18 669.619 1094.18 676.422H1094.18C1101.16 683.1 1104.87 690.801 1105.27 699.514L1105.29 700.037H1081.04L1080.94 699.673C1079.88 695.916 1078.07 693.222 1075.53 691.53C1072.95 689.813 1070.09 688.954 1066.94 688.954C1063.36 688.954 1060.51 689.681 1058.35 691.09C1056.22 692.477 1055.12 694.443 1055.03 697.043C1054.93 699.651 1055.86 701.77 1057.81 703.442C1059.9 705.148 1063.07 706.6 1067.36 707.771H1067.36L1079.33 710.874L1079.33 710.876C1088.17 713.259 1095.06 717.191 1099.97 722.696L1100.43 723.218C1105.14 728.651 1107.49 735.398 1107.49 743.424C1107.49 752.633 1103.97 760.354 1096.97 766.555L1096.97 766.558C1089.96 772.662 1080.82 775.694 1069.6 775.694C1057.28 775.694 1047.3 772.115 1039.7 764.918C1032.13 757.744 1028.12 749.35 1027.72 739.751L1027.7 739.23H1052.14L1052.21 739.641C1052.98 743.861 1054.89 747.143 1057.92 749.521L1058.22 749.733C1061.32 751.885 1065.1 752.973 1069.6 752.973C1073.57 752.973 1076.72 752.148 1079.07 750.547L1079.08 750.542C1081.51 748.952 1082.69 746.837 1082.69 744.163C1082.69 741.828 1081.64 739.756 1079.44 737.936C1077.23 736.103 1073.87 734.538 1069.32 733.267V733.266L1059.13 730.608L1059.13 730.607C1050.29 728.225 1043.31 724.344 1038.21 718.942C1033.09 713.523 1030.48 706.749 1030.38 698.656V698.65C1030.38 688.774 1033.68 680.896 1040.31 675.075L1040.94 674.53C1047.58 668.984 1056.26 666.232 1066.94 666.232Z" stroke="#F3F3E2" stroke-opacity="0.3"/>
<path d="M940.441 668.005L940.591 668.212L972.843 712.871L1005.39 668.21L1005.54 668.005H1027.72V773.921H1003.08V710.388L973.395 751.401L972.991 751.96L972.586 751.401L942.755 710.241V773.921H918.259V668.005H940.441Z" stroke="#F3F3E2" stroke-opacity="0.3"/>
<path d="M846.128 668.005V709.085H887.39V668.005H911.885V773.921H887.39V732.398H846.128V773.921H821.633V668.005H846.128Z" stroke="#F3F3E2" stroke-opacity="0.3"/>
<path d="M813.915 668.005V773.921H791.636V751.755H761.133L746.026 773.705L745.877 773.921H713.864L714.451 773.125L791.733 668.208L791.883 668.005H813.915ZM774.655 730.364H791.636V706.516L774.655 730.364Z" stroke="#F3F3E2" stroke-opacity="0.3"/>
<path d="M684.397 668.005C694.166 668.005 702.133 671.1 708.248 677.316C714.353 683.521 717.405 691.135 717.405 700.127C717.405 706.818 715.669 712.483 712.169 717.091C708.784 721.547 703.779 724.977 697.193 727.402L733.846 773.108L734.498 773.921H704.993L704.843 773.736L669.973 730.625H667.017V773.921H642.522V668.005H684.397ZM667.017 709.676H681.589C685.045 709.676 687.777 708.766 689.833 706.99L689.841 706.983L690.232 706.644C692.12 704.921 693.059 702.759 693.059 700.127C693.059 697.112 691.983 694.802 689.852 693.133L689.843 693.126C687.787 691.444 685.051 690.58 681.589 690.58H667.017V709.676Z" stroke="#F3F3E2" stroke-opacity="0.3"/>
<path d="M603.454 668.006C612.158 668.006 619.625 671.113 625.825 677.313H625.824C632.027 683.417 635.133 690.884 635.133 699.685C635.133 706.593 632.723 712.568 627.919 717.587C632.253 719.972 635.72 723.277 638.311 727.499H638.31C641.12 731.918 642.521 736.936 642.521 742.538C642.521 751.339 639.415 758.808 633.211 764.912L633.208 764.915C627 770.922 619.287 773.922 610.104 773.922H563.5V668.006H603.454ZM587.995 751.348H608.183C611.217 751.348 613.697 750.405 615.661 748.538C617.635 746.564 618.617 744.18 618.617 741.355C618.617 738.54 617.592 736.211 615.53 734.337L615.521 734.329L615.513 734.32C613.546 732.353 611.066 731.364 608.035 731.364H587.995V751.348ZM587.995 710.415H600.794C603.832 710.415 606.315 709.47 608.281 707.598C610.247 705.725 611.229 703.395 611.229 700.571C611.229 697.747 610.246 695.363 608.272 693.389C606.305 691.422 603.825 690.433 600.794 690.433H587.995V710.415Z" stroke="#F3F3E2" stroke-opacity="0.3"/>
<path d="M1066.94 786.232C1078.08 786.232 1087.18 789.619 1094.18 796.422H1094.18C1101.16 803.1 1104.87 810.801 1105.27 819.514L1105.29 820.037H1081.04L1080.94 819.673C1079.88 815.916 1078.07 813.222 1075.53 811.53C1072.95 809.813 1070.09 808.954 1066.94 808.954C1063.36 808.954 1060.51 809.681 1058.35 811.09C1056.22 812.477 1055.12 814.443 1055.03 817.043C1054.93 819.651 1055.86 821.77 1057.81 823.442C1059.9 825.148 1063.07 826.6 1067.36 827.771H1067.36L1079.33 830.874L1079.33 830.876C1088.17 833.259 1095.06 837.191 1099.97 842.696L1100.43 843.218C1105.14 848.651 1107.49 855.398 1107.49 863.424C1107.49 872.633 1103.97 880.354 1096.97 886.555L1096.97 886.558C1089.96 892.662 1080.82 895.694 1069.6 895.694C1057.28 895.694 1047.3 892.115 1039.7 884.918C1032.13 877.744 1028.12 869.35 1027.72 859.751L1027.7 859.23H1052.14L1052.21 859.641C1052.98 863.861 1054.89 867.143 1057.92 869.521L1058.22 869.733C1061.32 871.885 1065.1 872.973 1069.6 872.973C1073.57 872.973 1076.72 872.148 1079.07 870.547L1079.08 870.542C1081.51 868.952 1082.69 866.837 1082.69 864.163C1082.69 861.828 1081.64 859.756 1079.44 857.936C1077.23 856.103 1073.87 854.538 1069.32 853.267V853.266L1059.13 850.608L1059.13 850.607C1050.29 848.225 1043.31 844.344 1038.21 838.942C1033.09 833.523 1030.48 826.749 1030.38 818.656V818.65C1030.38 808.774 1033.68 800.896 1040.31 795.075L1040.94 794.53C1047.58 788.984 1056.26 786.232 1066.94 786.232Z" stroke="#F3F3E2" stroke-opacity="0.3"/>
<path d="M940.441 788.005L940.591 788.212L972.843 832.871L1005.39 788.21L1005.54 788.005H1027.72V893.921H1003.08V830.388L973.395 871.401L972.991 871.96L972.586 871.401L942.755 830.241V893.921H918.259V788.005H940.441Z" stroke="#F3F3E2" stroke-opacity="0.3"/>
<path d="M846.128 788.005V829.085H887.39V788.005H911.885V893.921H887.39V852.398H846.128V893.921H821.633V788.005H846.128Z" stroke="#F3F3E2" stroke-opacity="0.3"/>
<path d="M813.915 788.005V893.921H791.636V871.755H761.133L746.026 893.705L745.877 893.921H713.864L714.451 893.125L791.733 788.208L791.883 788.005H813.915ZM774.655 850.364H791.636V826.516L774.655 850.364Z" stroke="#F3F3E2" stroke-opacity="0.3"/>
<path d="M684.397 788.005C694.166 788.005 702.133 791.1 708.248 797.316C714.353 803.521 717.405 811.135 717.405 820.127C717.405 826.818 715.669 832.483 712.169 837.091C708.784 841.547 703.779 844.977 697.193 847.402L733.846 893.108L734.498 893.921H704.993L704.843 893.736L669.973 850.625H667.017V893.921H642.522V788.005H684.397ZM667.017 829.676H681.589C685.045 829.676 687.777 828.766 689.833 826.99L689.841 826.983L690.232 826.644C692.12 824.921 693.059 822.759 693.059 820.127C693.059 817.112 691.983 814.802 689.852 813.133L689.843 813.126C687.787 811.444 685.051 810.58 681.589 810.58H667.017V829.676Z" stroke="#F3F3E2" stroke-opacity="0.3"/>
<path d="M603.454 788.006C612.158 788.006 619.625 791.113 625.825 797.313H625.824C632.027 803.417 635.133 810.884 635.133 819.685C635.133 826.593 632.723 832.568 627.919 837.587C632.253 839.972 635.72 843.277 638.311 847.499H638.31C641.12 851.918 642.521 856.936 642.521 862.538C642.521 871.339 639.415 878.808 633.211 884.912L633.208 884.915C627 890.922 619.287 893.922 610.104 893.922H563.5V788.006H603.454ZM587.995 871.348H608.183C611.217 871.348 613.697 870.405 615.661 868.538C617.635 866.564 618.617 864.18 618.617 861.355C618.617 858.54 617.592 856.211 615.53 854.337L615.521 854.329L615.513 854.32C613.546 852.353 611.066 851.364 608.035 851.364H587.995V871.348ZM587.995 830.415H600.794C603.832 830.415 606.315 829.47 608.281 827.598C610.247 825.725 611.229 823.395 611.229 820.571C611.229 817.747 610.246 815.363 608.272 813.389C606.305 811.422 603.825 810.433 600.794 810.433H587.995V830.415Z" stroke="#F3F3E2" stroke-opacity="0.3"/>
<path d="M1452.7 280.682C1469.42 280.682 1483.66 286.469 1495.47 298.057C1507.28 309.645 1513.17 323.596 1513.17 339.966C1513.17 356.337 1507.28 370.289 1495.47 381.876C1483.66 393.465 1469.42 399.25 1452.7 399.25H1412.6V280.682H1452.7ZM1437.6 376.458H1452.7C1462.6 376.457 1470.81 373.177 1477.26 366.598L1477.88 365.952C1484.52 358.85 1487.83 350.167 1487.83 339.966C1487.83 329.765 1484.52 321.136 1477.88 314.145C1471.34 307.027 1462.92 303.475 1452.7 303.475H1437.6V376.458Z" stroke="white" stroke-opacity="0.2" stroke-width="2"/>
<path d="M1334.73 280.682V352.873C1334.73 360.204 1336.84 366.136 1341.13 370.551L1341.14 370.561C1345.55 374.965 1351.3 377.137 1358.32 377.137C1365.33 377.137 1371.04 374.965 1375.34 370.551L1375.34 370.55C1379.75 366.138 1381.91 360.207 1381.91 352.873V280.682H1406.91V352.533C1406.91 367.251 1402.34 379.037 1393.28 387.992C1384.32 396.838 1372.7 401.289 1358.32 401.289C1344.39 401.289 1332.99 397.112 1324.05 388.804L1323.19 387.988C1314.24 379.035 1309.73 367.25 1309.73 352.533V280.682H1334.73Z" stroke="white" stroke-opacity="0.2" stroke-width="2"/>
<path d="M1304.45 280.682V304.494H1273.37V399.25H1248.2V304.494H1217.46V280.682H1304.45Z" stroke="white" stroke-opacity="0.2" stroke-width="2"/>
<path d="M1172.49 278.645C1184.95 278.645 1194.99 282.419 1202.7 289.909L1202.71 289.914C1210.18 297.071 1214.22 305.207 1214.9 314.344H1189.88C1188.55 310.12 1186.36 306.914 1183.24 304.832C1180.01 302.683 1176.42 301.607 1172.49 301.607C1168.17 301.607 1164.57 302.482 1161.76 304.317C1158.87 306.197 1157.35 308.934 1157.23 312.421C1157.1 315.89 1158.36 318.788 1160.97 321.027L1160.98 321.035L1160.99 321.042C1163.64 323.206 1167.52 324.951 1172.57 326.327L1172.58 326.331L1186.33 329.894V329.895C1196.26 332.574 1203.89 336.961 1209.27 343.01L1209.28 343.017C1214.75 349.037 1217.51 356.599 1217.51 365.778C1217.51 375.899 1213.68 384.344 1205.97 391.176C1198.26 397.89 1188.15 401.289 1175.55 401.289C1161.72 401.289 1150.66 397.279 1142.27 389.336C1134.12 381.609 1129.73 372.685 1129.06 362.533H1154.18C1155.22 367.345 1157.55 371.201 1161.18 374.038L1161.21 374.06C1165.14 376.922 1169.94 378.326 1175.55 378.326C1180.31 378.326 1184.26 377.339 1187.3 375.275L1187.3 375.276C1190.51 373.183 1192.17 370.276 1192.17 366.628C1192.17 363.387 1190.68 360.588 1187.86 358.258C1185.07 355.952 1180.97 354.078 1175.65 352.589L1175.64 352.587L1175.63 352.584L1163.92 349.529C1153.98 346.849 1146.23 342.513 1140.61 336.563C1135.03 330.653 1132.17 323.263 1132.06 314.324C1132.06 303.364 1135.7 294.766 1142.92 288.415L1142.93 288.414C1150.29 281.932 1160.11 278.645 1172.49 278.645Z" stroke="white" stroke-opacity="0.2" stroke-width="2"/>
<path d="M1452.7 413.364C1469.42 413.364 1483.66 419.151 1495.47 430.739C1507.28 442.327 1513.17 456.278 1513.17 472.648C1513.17 489.018 1507.28 502.97 1495.47 514.558C1483.66 526.146 1469.42 531.932 1452.7 531.932H1412.6V413.364H1452.7ZM1437.6 509.139H1452.7C1462.6 509.139 1470.81 505.859 1477.26 499.28L1477.88 498.633C1484.52 491.532 1487.83 482.849 1487.83 472.648C1487.83 462.447 1484.52 453.818 1477.88 446.827C1471.34 439.709 1462.92 436.157 1452.7 436.157H1437.6V509.139Z" stroke="white" stroke-opacity="0.2" stroke-width="2"/>
<path d="M1334.73 413.364V485.554C1334.73 492.886 1336.84 498.818 1341.13 503.233L1341.14 503.243C1345.55 507.647 1351.3 509.819 1358.32 509.819C1365.33 509.819 1371.04 507.647 1375.34 503.233L1375.34 503.232C1379.75 498.819 1381.91 492.888 1381.91 485.554V413.364H1406.91V485.214C1406.91 499.933 1402.34 511.719 1393.28 520.673C1384.32 529.52 1372.7 533.97 1358.32 533.97C1344.39 533.97 1332.99 529.794 1324.05 521.486L1323.19 520.669C1314.24 511.717 1309.73 499.932 1309.73 485.214V413.364H1334.73Z" stroke="white" stroke-opacity="0.2" stroke-width="2"/>
<path d="M1304.45 413.364V437.175H1273.37V531.932H1248.2V437.175H1217.46V413.364H1304.45Z" stroke="white" stroke-opacity="0.2" stroke-width="2"/>
<path d="M1172.49 411.326C1184.95 411.326 1194.99 415.101 1202.7 422.591L1202.71 422.596C1210.18 429.753 1214.22 437.889 1214.9 447.025H1189.88C1188.55 442.801 1186.36 439.596 1183.24 437.514C1180.01 435.364 1176.42 434.289 1172.49 434.289C1168.17 434.289 1164.57 435.164 1161.76 436.999C1158.87 438.879 1157.35 441.615 1157.23 445.103C1157.1 448.572 1158.36 451.47 1160.97 453.709L1160.98 453.717L1160.99 453.724C1163.64 455.888 1167.52 457.633 1172.57 459.009L1172.58 459.013L1186.33 462.575V462.576C1196.26 465.255 1203.89 469.643 1209.27 475.691L1209.28 475.698C1214.75 481.719 1217.51 489.281 1217.51 498.46C1217.51 508.581 1213.68 517.026 1205.97 523.857C1198.26 530.572 1188.15 533.971 1175.55 533.971C1161.72 533.971 1150.66 529.961 1142.27 522.018C1134.12 514.291 1129.73 505.366 1129.06 495.215H1154.18C1155.22 500.027 1157.55 503.882 1161.18 506.72L1161.21 506.741C1165.14 509.603 1169.94 511.008 1175.55 511.008C1180.31 511.008 1184.26 510.021 1187.3 507.957L1187.3 507.958C1190.51 505.864 1192.17 502.958 1192.17 499.31C1192.17 496.069 1190.68 493.27 1187.86 490.939C1185.07 488.633 1180.97 486.76 1175.65 485.271L1175.64 485.269L1175.63 485.266L1163.92 482.211C1153.98 479.53 1146.23 475.195 1140.61 469.245C1135.03 463.334 1132.17 455.944 1132.06 447.006C1132.06 436.045 1135.7 427.448 1142.92 421.097L1142.93 421.096C1150.29 414.614 1160.11 411.326 1172.49 411.326Z" stroke="white" stroke-opacity="0.2" stroke-width="2"/>
<path d="M1452.7 153.038C1469.42 153.038 1483.66 158.824 1495.47 170.413C1507.28 182.001 1513.17 195.952 1513.17 212.322C1513.17 228.692 1507.28 242.644 1495.47 254.232C1483.66 265.82 1469.42 271.606 1452.7 271.606H1412.6V153.038H1452.7ZM1437.6 248.813H1452.7C1462.6 248.813 1470.81 245.533 1477.26 238.954L1477.88 238.307C1484.52 231.205 1487.83 222.523 1487.83 212.322C1487.83 202.121 1484.52 193.491 1477.88 186.5C1471.34 179.383 1462.92 175.831 1452.7 175.831H1437.6V248.813Z" stroke="white" stroke-opacity="0.2" stroke-width="2"/>
<path d="M1334.73 153.038V225.228C1334.73 232.56 1336.84 238.492 1341.13 242.907L1341.14 242.917C1345.55 247.321 1351.3 249.493 1358.32 249.493C1365.33 249.493 1371.04 247.321 1375.34 242.907L1375.34 242.906C1379.75 238.493 1381.91 232.562 1381.91 225.228V153.038H1406.91V224.888C1406.91 239.607 1402.34 251.393 1393.28 260.347C1384.32 269.194 1372.7 273.644 1358.32 273.644C1344.39 273.644 1332.99 269.468 1324.05 261.16L1323.19 260.343C1314.24 251.391 1309.73 239.606 1309.73 224.888V153.038H1334.73Z" stroke="white" stroke-opacity="0.2" stroke-width="2"/>
<path d="M1304.45 153.038V176.849H1273.37V271.606H1248.2V176.849H1217.46V153.038H1304.45Z" stroke="white" stroke-opacity="0.2" stroke-width="2"/>
<path d="M1172.49 151C1184.95 151 1194.99 154.775 1202.7 162.265L1202.71 162.27C1210.18 169.427 1214.22 177.563 1214.9 186.699H1189.88C1188.55 182.475 1186.36 179.27 1183.24 177.188C1180.01 175.038 1176.42 173.963 1172.49 173.963C1168.17 173.963 1164.57 174.838 1161.76 176.673C1158.87 178.553 1157.35 181.289 1157.23 184.776C1157.1 188.246 1158.36 191.144 1160.97 193.383L1160.98 193.391L1160.99 193.397C1163.64 195.562 1167.52 197.307 1172.57 198.683L1172.58 198.687L1186.33 202.249V202.25C1196.26 204.929 1203.89 209.317 1209.27 215.365L1209.28 215.372C1214.75 221.393 1217.51 228.955 1217.51 238.134C1217.51 248.255 1213.68 256.699 1205.97 263.531C1198.26 270.246 1188.15 273.645 1175.55 273.645C1161.72 273.644 1150.66 269.635 1142.27 261.691C1134.12 253.965 1129.73 245.04 1129.06 234.889H1154.18C1155.22 239.701 1157.55 243.556 1161.18 246.394L1161.21 246.415C1165.14 249.277 1169.94 250.682 1175.55 250.682C1180.31 250.682 1184.26 249.695 1187.3 247.631L1187.3 247.632C1190.51 245.538 1192.17 242.632 1192.17 238.983C1192.17 235.743 1190.68 232.944 1187.86 230.613C1185.07 228.307 1180.97 226.434 1175.65 224.944L1175.64 224.942L1175.63 224.939L1163.92 221.885C1153.98 219.204 1146.23 214.869 1140.61 208.919C1135.03 203.008 1132.17 195.618 1132.06 186.68C1132.06 175.719 1135.7 167.121 1142.92 160.771L1142.93 160.77C1150.29 154.288 1160.11 151 1172.49 151Z" stroke="white" stroke-opacity="0.2" stroke-width="2"/>
<path d="M1452.7 23.0376C1469.42 23.0377 1483.66 28.8244 1495.47 40.4126C1507.28 52.0005 1513.17 65.9516 1513.17 82.3218C1513.17 98.6921 1507.28 112.644 1495.47 124.232C1483.66 135.82 1469.42 141.606 1452.7 141.606H1412.6V23.0376H1452.7ZM1437.6 118.813H1452.7C1462.6 118.813 1470.81 115.533 1477.26 108.954L1477.88 108.307C1484.52 101.205 1487.83 92.5227 1487.83 82.3218C1487.83 72.1209 1484.52 63.4915 1477.88 56.5005C1471.34 49.3828 1462.92 45.8307 1452.7 45.8306H1437.6V118.813Z" stroke="white" stroke-opacity="0.2" stroke-width="2"/>
<path d="M1334.73 23.0376V95.228C1334.73 102.56 1336.84 108.492 1341.13 112.907L1341.14 112.917C1345.55 117.321 1351.3 119.493 1358.32 119.493C1365.33 119.493 1371.04 117.321 1375.34 112.907L1375.34 112.906C1379.75 108.493 1381.91 102.562 1381.91 95.228V23.0376H1406.91V94.8882C1406.91 109.607 1402.34 121.393 1393.28 130.347C1384.32 139.194 1372.7 143.644 1358.32 143.644C1344.39 143.644 1332.99 139.468 1324.05 131.16L1323.19 130.343C1314.24 121.391 1309.73 109.606 1309.73 94.8882V23.0376H1334.73Z" stroke="white" stroke-opacity="0.2" stroke-width="2"/>
<path d="M1304.45 23.0376V46.8491H1273.37V141.606H1248.2V46.8491H1217.46V23.0376H1304.45Z" stroke="white" stroke-opacity="0.2" stroke-width="2"/>
<path d="M1172.49 21C1184.95 21 1194.99 24.7747 1202.7 32.2646L1202.71 32.2695C1210.18 39.4268 1214.22 47.5625 1214.9 56.6992H1189.88C1188.55 52.4752 1186.36 49.2698 1183.24 47.1875C1180.01 45.0382 1176.42 43.9629 1172.49 43.9629C1168.17 43.9629 1164.57 44.8379 1161.76 46.6729C1158.87 48.553 1157.35 51.2893 1157.23 54.7764C1157.1 58.2459 1158.36 61.1439 1160.97 63.3828L1160.98 63.3906L1160.99 63.3975C1163.64 65.5618 1167.52 67.3069 1172.57 68.6826L1172.58 68.6865L1186.33 72.249V72.25C1196.26 74.9291 1203.89 79.3167 1209.27 85.3652L1209.28 85.3721C1214.75 91.3926 1217.51 98.9549 1217.51 108.134C1217.51 118.255 1213.68 126.699 1205.97 133.531C1198.26 140.246 1188.15 143.645 1175.55 143.645C1161.72 143.644 1150.66 139.635 1142.27 131.691C1134.12 123.965 1129.73 115.04 1129.06 104.889H1154.18C1155.22 109.701 1157.55 113.556 1161.18 116.394L1161.21 116.415C1165.14 119.277 1169.94 120.682 1175.55 120.682C1180.31 120.682 1184.26 119.695 1187.3 117.631L1187.3 117.632C1190.51 115.538 1192.17 112.632 1192.17 108.983C1192.17 105.743 1190.68 102.944 1187.86 100.613C1185.07 98.3071 1180.97 96.4337 1175.65 94.9443L1175.64 94.9424L1175.63 94.9395L1163.92 91.8848C1153.98 89.2043 1146.23 84.8689 1140.61 78.9189C1135.03 73.008 1132.17 65.618 1132.06 56.6797C1132.06 45.7191 1135.7 37.1215 1142.92 30.7705L1142.93 30.7695C1150.29 24.2876 1160.11 21.0001 1172.49 21Z" stroke="white" stroke-opacity="0.2" stroke-width="2"/>
<path d="M1410.13 544.206V585.286H1451.39V544.206H1475.88V650.122H1451.39V608.598H1410.13V650.122H1385.63V544.206H1410.13Z" stroke="#F3F3E2" stroke-opacity="0.3"/>
<path d="M1377.91 544.206V650.122H1355.64V627.956H1325.13L1310.03 649.905L1309.88 650.122H1277.86L1278.45 649.325L1355.73 544.409L1355.88 544.206H1377.91ZM1338.65 606.564H1355.64V582.716L1338.65 606.564Z" stroke="#F3F3E2" stroke-opacity="0.3"/>
<path d="M1248.4 544.206C1258.17 544.206 1266.13 547.301 1272.25 553.516C1278.35 559.721 1281.41 567.336 1281.41 576.328C1281.41 583.018 1279.67 588.684 1276.17 593.292C1272.78 597.747 1267.78 601.177 1261.19 603.602L1297.85 649.308L1298.5 650.122H1268.99L1268.84 649.936L1233.97 606.825H1231.02V650.122H1206.52V544.206H1248.4ZM1231.02 585.876H1245.59C1249.05 585.876 1251.78 584.966 1253.83 583.19L1253.84 583.183L1254.23 582.844C1256.12 581.121 1257.06 578.959 1257.06 576.328C1257.06 573.312 1255.98 571.002 1253.85 569.333L1253.84 569.327C1251.79 567.644 1249.05 566.78 1245.59 566.78H1231.02V585.876Z" stroke="#F3F3E2" stroke-opacity="0.3"/>
<path d="M1167.45 544.206C1176.16 544.206 1183.62 547.313 1189.83 553.514H1189.82C1196.03 559.618 1199.13 567.085 1199.13 575.885C1199.13 582.793 1196.72 588.768 1191.92 593.787C1196.25 596.172 1199.72 599.477 1202.31 603.699H1202.31C1205.12 608.118 1206.52 613.136 1206.52 618.738C1206.52 627.539 1203.42 635.008 1197.21 641.112L1197.21 641.115C1191 647.123 1183.29 650.122 1174.1 650.122H1127.5V544.206H1167.45ZM1152 627.548H1172.18C1175.22 627.548 1177.7 626.605 1179.66 624.738C1181.63 622.764 1182.62 620.38 1182.62 617.556C1182.62 614.74 1181.59 612.412 1179.53 610.537L1179.52 610.529L1179.51 610.521C1177.55 608.554 1175.07 607.564 1172.04 607.564H1152V627.548ZM1152 586.615H1164.79C1167.83 586.615 1170.32 585.67 1172.28 583.798C1174.25 581.926 1175.23 579.595 1175.23 576.771C1175.23 573.947 1174.25 571.563 1172.27 569.589C1170.31 567.622 1167.83 566.633 1164.79 566.633H1152V586.615Z" stroke="#F3F3E2" stroke-opacity="0.3"/>
<path d="M1410.13 668.005V709.085H1451.39V668.005H1475.88V773.921H1451.39V732.398H1410.13V773.921H1385.63V668.005H1410.13Z" stroke="#F3F3E2" stroke-opacity="0.3"/>
<path d="M1377.91 668.005V773.921H1355.64V751.755H1325.13L1310.03 773.705L1309.88 773.921H1277.86L1278.45 773.125L1355.73 668.208L1355.88 668.005H1377.91ZM1338.65 730.364H1355.64V706.516L1338.65 730.364Z" stroke="#F3F3E2" stroke-opacity="0.3"/>
<path d="M1248.4 668.005C1258.17 668.005 1266.13 671.1 1272.25 677.316C1278.35 683.521 1281.41 691.135 1281.41 700.127C1281.41 706.818 1279.67 712.483 1276.17 717.091C1272.78 721.547 1267.78 724.977 1261.19 727.402L1297.85 773.108L1298.5 773.921H1268.99L1268.84 773.736L1233.97 730.625H1231.02V773.921H1206.52V668.005H1248.4ZM1231.02 709.676H1245.59C1249.05 709.676 1251.78 708.766 1253.83 706.99L1253.84 706.983L1254.23 706.644C1256.12 704.921 1257.06 702.759 1257.06 700.127C1257.06 697.112 1255.98 694.802 1253.85 693.133L1253.84 693.126C1251.79 691.444 1249.05 690.58 1245.59 690.58H1231.02V709.676Z" stroke="#F3F3E2" stroke-opacity="0.3"/>
<path d="M1167.45 668.006C1176.16 668.006 1183.62 671.113 1189.83 677.313H1189.82C1196.03 683.417 1199.13 690.884 1199.13 699.685C1199.13 706.593 1196.72 712.568 1191.92 717.587C1196.25 719.972 1199.72 723.277 1202.31 727.499H1202.31C1205.12 731.918 1206.52 736.936 1206.52 742.538C1206.52 751.339 1203.42 758.808 1197.21 764.912L1197.21 764.915C1191 770.922 1183.29 773.922 1174.1 773.922H1127.5V668.006H1167.45ZM1152 751.348H1172.18C1175.22 751.348 1177.7 750.405 1179.66 748.538C1181.63 746.564 1182.62 744.18 1182.62 741.355C1182.62 738.54 1181.59 736.211 1179.53 734.337L1179.52 734.329L1179.51 734.32C1177.55 732.353 1175.07 731.364 1172.04 731.364H1152V751.348ZM1152 710.415H1164.79C1167.83 710.415 1170.32 709.47 1172.28 707.598C1174.25 705.725 1175.23 703.395 1175.23 700.571C1175.23 697.747 1174.25 695.363 1172.27 693.389C1170.31 691.422 1167.83 690.433 1164.79 690.433H1152V710.415Z" stroke="#F3F3E2" stroke-opacity="0.3"/>
<path d="M1410.13 788.005V829.085H1451.39V788.005H1475.88V893.921H1451.39V852.398H1410.13V893.921H1385.63V788.005H1410.13Z" stroke="#F3F3E2" stroke-opacity="0.3"/>
<path d="M1377.91 788.005V893.921H1355.64V871.755H1325.13L1310.03 893.705L1309.88 893.921H1277.86L1278.45 893.125L1355.73 788.208L1355.88 788.005H1377.91ZM1338.65 850.364H1355.64V826.516L1338.65 850.364Z" stroke="#F3F3E2" stroke-opacity="0.3"/>
<path d="M1248.4 788.005C1258.17 788.005 1266.13 791.1 1272.25 797.316C1278.35 803.521 1281.41 811.135 1281.41 820.127C1281.41 826.818 1279.67 832.483 1276.17 837.091C1272.78 841.547 1267.78 844.977 1261.19 847.402L1297.85 893.108L1298.5 893.921H1268.99L1268.84 893.736L1233.97 850.625H1231.02V893.921H1206.52V788.005H1248.4ZM1231.02 829.676H1245.59C1249.05 829.676 1251.78 828.766 1253.83 826.99L1253.84 826.983L1254.23 826.644C1256.12 824.921 1257.06 822.759 1257.06 820.127C1257.06 817.112 1255.98 814.802 1253.85 813.133L1253.84 813.126C1251.79 811.444 1249.05 810.58 1245.59 810.58H1231.02V829.676Z" stroke="#F3F3E2" stroke-opacity="0.3"/>
<path d="M1167.45 788.006C1176.16 788.006 1183.62 791.113 1189.83 797.313H1189.82C1196.03 803.417 1199.13 810.884 1199.13 819.685C1199.13 826.593 1196.72 832.568 1191.92 837.587C1196.25 839.972 1199.72 843.277 1202.31 847.499H1202.31C1205.12 851.918 1206.52 856.936 1206.52 862.538C1206.52 871.339 1203.42 878.808 1197.21 884.912L1197.21 884.915C1191 890.922 1183.29 893.922 1174.1 893.922H1127.5V788.006H1167.45ZM1152 871.348H1172.18C1175.22 871.348 1177.7 870.405 1179.66 868.538C1181.63 866.564 1182.62 864.18 1182.62 861.355C1182.62 858.54 1181.59 856.211 1179.53 854.337L1179.52 854.329L1179.51 854.32C1177.55 852.353 1175.07 851.364 1172.04 851.364H1152V871.348ZM1152 830.415H1164.79C1167.83 830.415 1170.32 829.47 1172.28 827.598C1174.25 825.725 1175.23 823.395 1175.23 820.571C1175.23 817.747 1174.25 815.363 1172.27 813.389C1170.31 811.422 1167.83 810.433 1164.79 810.433H1152V830.415Z" stroke="#F3F3E2" stroke-opacity="0.3"/>
<path d="M527 651V195H698.932C736.28 195 768.263 208.273 794.879 234.82C821.495 260.938 834.803 292.837 834.803 330.516C834.803 360.915 823.856 387.034 801.962 408.87C821.71 419.146 837.379 433.704 848.97 452.544C860.99 471.383 867 492.792 867 516.769C867 554.448 853.692 586.346 827.076 612.465C800.46 638.155 767.404 651 727.909 651H527Z" fill="#F3F3E2"/>
<path d="M697.965 578.462C700.528 581.108 703.616 582.432 707.229 582.432C710.842 582.432 713.909 581.108 716.43 578.462C718.95 575.815 720.211 572.664 720.211 569.009C720.211 565.354 718.95 562.203 716.43 559.556C713.909 556.909 710.842 555.586 707.229 555.586C703.616 555.586 700.528 556.909 697.965 559.556C695.444 562.203 694.184 565.354 694.184 569.009C694.184 572.664 695.444 575.815 697.965 578.462ZM723.551 585.331C719.055 589.868 713.615 592.137 707.229 592.137C700.843 592.137 695.381 589.889 690.844 585.394C686.349 580.856 684.101 575.395 684.101 569.009C684.101 562.623 686.349 557.182 690.844 552.687C695.381 548.15 700.843 545.881 707.229 545.881C713.615 545.881 719.055 548.15 723.551 552.687C728.088 557.224 730.357 562.665 730.357 569.009C730.357 575.353 728.088 580.793 723.551 585.331Z" fill="black"/>
<path d="M673.161 591.381V546.637H683.181V591.381H673.161Z" fill="black"/>
<path d="M634.099 591.381V546.637H649.35C655.652 546.637 661.029 548.822 665.483 553.191C669.936 557.56 672.163 562.833 672.163 569.009C672.163 575.185 669.936 580.457 665.483 584.827C661.029 589.196 655.652 591.381 649.35 591.381H634.099ZM644.119 582.18H649.35C653.047 582.18 656.072 580.919 658.425 578.399C660.819 575.836 662.017 572.706 662.017 569.009C662.017 565.312 660.819 562.203 658.425 559.682C656.072 557.119 653.047 555.838 649.35 555.838H644.119V582.18Z" fill="black"/>
<path d="M627.56 587.095C624.157 590.456 619.745 592.137 614.326 592.137C608.906 592.137 604.474 590.456 601.029 587.095C597.626 583.692 595.924 579.218 595.924 573.672V546.637H605.944V573.798C605.944 576.445 606.7 578.546 608.213 580.1C609.767 581.655 611.805 582.432 614.326 582.432C616.847 582.432 618.863 581.655 620.376 580.1C621.93 578.546 622.707 576.445 622.707 573.798V546.637H632.727V573.672C632.727 579.218 631.005 583.692 627.56 587.095Z" fill="black"/>
<path d="M573.089 591.381V556.216H561.682V546.637H594.704V556.216H583.172V591.381H573.089Z" fill="black"/>
<path d="M546.499 592.137C541.289 592.137 537.088 590.624 533.895 587.599C530.702 584.574 529.022 581.045 528.854 577.012H538.874C539.21 578.861 540.05 580.31 541.394 581.36C542.781 582.369 544.482 582.873 546.499 582.873C548.221 582.873 549.608 582.516 550.658 581.802C551.75 581.087 552.297 580.121 552.297 578.903C552.297 576.76 550.343 575.143 546.436 574.05L542.087 572.916C538.348 571.908 535.407 570.269 533.265 568C531.122 565.732 530.03 562.896 529.988 559.493C529.988 555.334 531.374 552.036 534.147 549.599C536.962 547.12 540.701 545.881 545.364 545.881C550.07 545.881 553.893 547.309 556.834 550.166C559.775 552.981 561.329 556.216 561.497 559.871H551.54C551.078 558.233 550.28 557.035 549.146 556.279C548.011 555.523 546.751 555.145 545.364 555.145C543.81 555.145 542.55 555.46 541.583 556.09C540.617 556.72 540.113 557.623 540.071 558.8C540.029 559.976 540.449 560.942 541.331 561.699C542.256 562.455 543.642 563.085 545.49 563.589L550.595 564.913C554.334 565.921 557.233 567.58 559.292 569.891C561.392 572.202 562.443 575.101 562.443 578.588C562.443 582.453 560.972 585.688 558.031 588.293C555.09 590.855 551.246 592.137 546.499 592.137Z" fill="black"/>
<path d="M744.477 639.506C739.267 639.506 735.066 637.993 731.873 634.968C728.68 631.944 727 628.415 726.832 624.381H736.852C737.188 626.23 738.028 627.679 739.372 628.73C740.759 629.738 742.46 630.242 744.477 630.242C746.199 630.242 747.586 629.885 748.636 629.171C749.728 628.457 750.275 627.49 750.275 626.272C750.275 624.129 748.321 622.512 744.414 621.419L740.065 620.285C736.326 619.277 733.385 617.638 731.243 615.37C729.1 613.101 728.008 610.265 727.966 606.862C727.966 602.703 729.352 599.405 732.125 596.968C734.94 594.489 738.679 593.25 743.342 593.25C748.048 593.25 751.871 594.678 754.812 597.535C757.753 600.35 759.307 603.585 759.475 607.24H749.518C749.056 605.602 748.258 604.404 747.124 603.648C745.989 602.892 744.729 602.514 743.342 602.514C741.788 602.514 740.528 602.829 739.561 603.459C738.595 604.089 738.091 604.993 738.049 606.169C738.007 607.345 738.427 608.312 739.309 609.068C740.234 609.824 741.62 610.454 743.468 610.958L748.573 612.282C752.312 613.29 755.211 614.949 757.27 617.26C759.37 619.571 760.421 622.47 760.421 625.957C760.421 629.822 758.95 633.057 756.009 635.662C753.068 638.224 749.224 639.506 744.477 639.506Z" fill="black"/>
<path d="M680.148 594.006H689.286L703.213 613.29L717.266 594.006H726.404V638.75H716.321V611.21L703.276 629.234L690.168 611.147V638.75H680.148V594.006Z" fill="black"/>
<path d="M638.939 638.75V594.006H648.959V611.526H666.983V594.006H677.003V638.75H666.983V621.041H648.959V638.75H638.939Z" fill="black"/>
<path d="M593.188 638.75L626.147 594.006H635.221V638.75H626.147V629.297H612.813L606.306 638.75H593.188ZM626.147 609.55L618.278 620.6H626.147V609.55Z" fill="black"/>
<path d="M562.554 638.75V594.006H580.199C584.316 594.006 587.656 595.309 590.219 597.914C592.782 600.518 594.063 603.711 594.063 607.492C594.063 613.122 591.143 616.966 585.304 619.025L601.121 638.75H589.085L574.149 620.285H572.574V638.75H562.554ZM572.574 611.778H579.002C580.514 611.778 581.733 611.379 582.657 610.58C583.623 609.782 584.106 608.753 584.106 607.492C584.106 606.148 583.623 605.098 582.657 604.341C581.733 603.585 580.514 603.207 579.002 603.207H572.574V611.778Z" fill="black"/>
<path d="M528.854 638.75V594.006H545.68C549.335 594.006 552.465 595.309 555.069 597.914C557.674 600.476 558.977 603.606 558.977 607.303C558.977 610.286 557.905 612.849 555.763 614.992C557.695 616 559.229 617.428 560.363 619.277C561.539 621.125 562.127 623.226 562.127 625.579C562.127 629.276 560.825 632.406 558.22 634.969C555.616 637.489 552.381 638.75 548.515 638.75H528.854ZM538.874 629.549H547.696C549.041 629.549 550.154 629.129 551.036 628.289C551.918 627.406 552.36 626.335 552.36 625.075C552.36 623.814 551.897 622.764 550.973 621.924C550.091 621.041 548.978 620.6 547.633 620.6H538.874V629.549ZM538.874 612.093H544.545C545.89 612.093 547.003 611.673 547.885 610.832C548.767 609.992 549.209 608.942 549.209 607.681C549.209 606.421 548.767 605.35 547.885 604.467C547.003 603.585 545.89 603.144 544.545 603.144H538.874V612.093Z" fill="black"/>
</g>
<defs>
<clipPath id="clip0_292_49">
<rect width="1440" height="932" fill="white"/>
</clipPath>
</defs>
</svg>
